<svg id="Group_264" data-name="Group 264" xmlns="http://www.w3.org/2000/svg" xmlns:xlink="http://www.w3.org/1999/xlink" width="483.266" height="662.303" viewBox="0 0 483.266 662.303">
  <defs>
    <clipPath id="clip-path">
      <rect id="Rectangle_49" data-name="Rectangle 49" width="483.266" height="662.303" fill="none"/>
    </clipPath>
    <clipPath id="clip-path-3">
      <rect id="Rectangle_17" data-name="Rectangle 17" width="6.413" height="20.095" fill="none"/>
    </clipPath>
    <clipPath id="clip-path-4">
      <path id="Path_19" data-name="Path 19" d="M417.867,588.489a56.366,56.366,0,1,0,56.366-56.365,56.366,56.366,0,0,0-56.366,56.365" transform="translate(-417.867 -532.124)" fill="none"/>
    </clipPath>
    <clipPath id="clip-path-5">
      <path id="Path_20" data-name="Path 20" d="M479.934,551.783c0,2.178,3.2,3.944,7.144,3.944s7.143-1.766,7.143-3.944-3.2-3.944-7.143-3.944-7.144,1.766-7.144,3.944" transform="translate(-479.934 -547.839)" fill="none"/>
    </clipPath>
    <radialGradient id="radial-gradient" cx="0.5" cy="0.5" r="0.847" gradientUnits="objectBoundingBox">
      <stop offset="0" stop-color="#ffd7c2"/>
      <stop offset="0.158" stop-color="#fbd4bf"/>
      <stop offset="0.31" stop-color="#efcbb8"/>
      <stop offset="0.458" stop-color="#dcbdac"/>
      <stop offset="0.604" stop-color="#c1a89c"/>
      <stop offset="0.749" stop-color="#9e8e86"/>
      <stop offset="0.891" stop-color="#746f6d"/>
      <stop offset="1" stop-color="#4f5356"/>
    </radialGradient>
    <clipPath id="clip-path-6">
      <path id="Path_21" data-name="Path 21" d="M496.653,566.6a6.236,6.236,0,1,0,6.236-6.235,6.236,6.236,0,0,0-6.236,6.235" transform="translate(-496.653 -560.368)" fill="none"/>
    </clipPath>
    <radialGradient id="radial-gradient-2" cy="0.5" r="0.5" xlink:href="#radial-gradient"/>
    <clipPath id="clip-path-7">
      <path id="Path_22" data-name="Path 22" d="M460.137,572.534a9.645,9.645,0,1,0,9.645-9.645,9.644,9.644,0,0,0-9.645,9.645" transform="translate(-460.137 -562.889)" fill="none"/>
    </clipPath>
    <clipPath id="clip-path-8">
      <path id="Path_23" data-name="Path 23" d="M496.653,587.61a4.9,4.9,0,1,0,4.9-4.9,4.9,4.9,0,0,0-4.9,4.9" transform="translate(-496.653 -582.712)" fill="none"/>
    </clipPath>
    <clipPath id="clip-path-9">
      <path id="Path_90" data-name="Path 90" d="M118.8,587.167A56.366,56.366,0,1,0,175.163,530.8,56.366,56.366,0,0,0,118.8,587.167" transform="translate(-118.797 -530.801)" fill="none"/>
    </clipPath>
    <clipPath id="clip-path-10">
      <rect id="Rectangle_23" data-name="Rectangle 23" width="5.405" height="11.303" fill="none"/>
    </clipPath>
    <clipPath id="clip-path-12">
      <rect id="Rectangle_24" data-name="Rectangle 24" width="6.383" height="19.999" fill="none"/>
    </clipPath>
    <clipPath id="clip-path-13">
      <rect id="Rectangle_33" data-name="Rectangle 33" width="6.443" height="20.19" fill="none"/>
    </clipPath>
    <clipPath id="clip-path-14">
      <path id="Path_233" data-name="Path 233" d="M78.024,49.819c0,4.1,6.021,7.425,13.448,7.425s13.447-3.324,13.447-7.425S98.9,42.393,91.472,42.393s-13.448,3.324-13.448,7.425" transform="translate(-78.024 -42.393)" fill="none"/>
    </clipPath>
    <radialGradient id="radial-gradient-5" cy="0.5" r="0.864" xlink:href="#radial-gradient"/>
    <clipPath id="clip-path-16">
      <path id="Path_241" data-name="Path 241" d="M190.892,311.421c0,11.428,14.793,20.693,27.715,20.693s27.029-9.264,27.029-20.693-14.108-20.692-27.029-20.692-27.715,9.264-27.715,20.692" transform="translate(-190.892 -290.729)" fill="none"/>
    </clipPath>
    <radialGradient id="radial-gradient-6" cx="0.5" cy="0.305" r="0.625" gradientUnits="objectBoundingBox">
      <stop offset="0" stop-color="#ffd7c2"/>
      <stop offset="0.125" stop-color="#fbd4bf"/>
      <stop offset="0.244" stop-color="#efcbb8"/>
      <stop offset="0.361" stop-color="#dcbcab"/>
      <stop offset="0.476" stop-color="#c1a69a"/>
      <stop offset="0.591" stop-color="#9e8b83"/>
      <stop offset="0.704" stop-color="#736a67"/>
      <stop offset="0.815" stop-color="#424347"/>
      <stop offset="0.818" stop-color="#414347"/>
      <stop offset="1" stop-color="#414347"/>
    </radialGradient>
    <clipPath id="clip-path-18">
      <rect id="Rectangle_38" data-name="Rectangle 38" width="6.412" height="20.095" fill="none"/>
    </clipPath>
    <clipPath id="clip-path-19">
      <rect id="Rectangle_39" data-name="Rectangle 39" width="6.814" height="14.25" fill="none"/>
    </clipPath>
    <clipPath id="clip-path-20">
      <path id="Path_260" data-name="Path 260" d="M341.546,336.411c0,11.428,14.793,20.692,27.714,20.692s27.029-9.264,27.029-20.692-14.108-20.693-27.029-20.693-27.714,9.264-27.714,20.693" transform="translate(-341.546 -315.718)" fill="none"/>
    </clipPath>
    <radialGradient id="radial-gradient-7" cy="0.305" r="0.625" xlink:href="#radial-gradient-6"/>
    <clipPath id="clip-path-22">
      <path id="Path_271" data-name="Path 271" d="M404.009,601.455a4.425,4.425,0,1,0,4.425-4.425,4.425,4.425,0,0,0-4.425,4.425" transform="translate(-404.009 -597.03)" fill="none"/>
    </clipPath>
    <radialGradient id="radial-gradient-8" cx="0.5" cy="0.5" r="0.5" gradientUnits="objectBoundingBox">
      <stop offset="0" stop-color="#ffd7c2"/>
      <stop offset="0.097" stop-color="#f6d0bc"/>
      <stop offset="0.252" stop-color="#debdad"/>
      <stop offset="0.447" stop-color="#b8a094"/>
      <stop offset="0.673" stop-color="#837671"/>
      <stop offset="0.92" stop-color="#414347"/>
      <stop offset="1" stop-color="#414347"/>
    </radialGradient>
    <clipPath id="clip-path-24">
      <rect id="Rectangle_45" data-name="Rectangle 45" width="13.229" height="13.229" fill="none"/>
    </clipPath>
    <clipPath id="clip-path-25">
      <path id="Path_272" data-name="Path 272" d="M422.029,583.762a6.614,6.614,0,1,1-6.615-6.615,6.614,6.614,0,0,1,6.615,6.615" transform="translate(-408.8 -577.147)" fill="none"/>
    </clipPath>
    <radialGradient id="radial-gradient-9" cx="0.5" cy="0.5" r="0.5" gradientUnits="objectBoundingBox">
      <stop offset="0" stop-color="#ffd7c2"/>
      <stop offset="0.107" stop-color="#eec9b7"/>
      <stop offset="0.32" stop-color="#c1a79a"/>
      <stop offset="0.615" stop-color="#7b706c"/>
      <stop offset="0.841" stop-color="#414347"/>
      <stop offset="1" stop-color="#414347"/>
    </radialGradient>
    <clipPath id="clip-path-26">
      <rect id="Rectangle_47" data-name="Rectangle 47" width="16.595" height="13.782" fill="none"/>
    </clipPath>
    <clipPath id="clip-path-27">
      <path id="Path_273" data-name="Path 273" d="M410.5,567.188c1.222,4.082-1.006,6.459-5.088,7.681s-9.707.775-10.929-3.307,2.333-8.331,6.415-9.552a7.714,7.714,0,0,1,9.6,5.179" transform="translate(-394.237 -561.683)" fill="none"/>
    </clipPath>
    <radialGradient id="radial-gradient-10" cx="0.488" cy="0.51" r="0.38" xlink:href="#radial-gradient-8"/>
  </defs>
  <g id="Group_63" data-name="Group 63" clip-path="url(#clip-path)">
    <g id="Group_7" data-name="Group 7">
      <g id="Group_6" data-name="Group 6" clip-path="url(#clip-path)">
        <path id="Path_1" data-name="Path 1" d="M474.333,532.623A55.966,55.966,0,1,0,530.3,588.589a56.029,56.029,0,0,0-55.966-55.966" transform="translate(-83.57 -106.393)" fill="#fff"/>
        <path id="Path_2" data-name="Path 2" d="M175.263,531.3a55.966,55.966,0,1,0,55.966,55.966A56.029,56.029,0,0,0,175.263,531.3" transform="translate(-23.83 -106.128)" fill="#fff"/>
        <path id="Path_3" data-name="Path 3" d="M228.212,193.416H127.646V167.6l23.589-4.91h53.389l23.589,4.91Z" transform="translate(-25.497 -32.497)" fill="#f7f7f7"/>
        <path id="Path_4" data-name="Path 4" d="M204.7,108.571l-9.419,7.229a21.161,21.161,0,0,1-25.265,0l-9.418-7.229c-3.94-3.023-6.366-12.275-6.737-16.912l-2.494-26.177c-1.3-16.271,13.076-30.115,31.282-30.115s32.586,13.843,31.283,30.115L211.44,91.66c-.371,4.637-2.8,13.888-6.737,16.912" transform="translate(-30.22 -7.065)" fill="#414347"/>
        <path id="Path_5" data-name="Path 5" d="M230.264,98.27c0,7.823-3.835,14.076-8.565,14.076s-8.564-4.5-8.564-10.048,3.835-10.047,8.564-10.047,8.565.471,8.565,6.019" transform="translate(-42.574 -18.427)" fill="#ffd1bb"/>
        <path id="Path_6" data-name="Path 6" d="M146.42,98.27c0,7.823,3.835,14.076,8.565,14.076s8.564-4.5,8.564-10.048-3.835-10.047-8.564-10.047-8.565.471-8.565,6.019" transform="translate(-29.248 -18.427)" fill="#ffd1bb"/>
        <path id="Path_7" data-name="Path 7" d="M203.332,142.447v-33.67H164.3v33.67a9.837,9.837,0,0,1-7.179,9.471l1.532,5.858a20.561,20.561,0,0,0,6.555,10.447l5.266,4.489a20.567,20.567,0,0,0,26.683,0l5.266-4.489a20.561,20.561,0,0,0,6.555-10.447l1.533-5.858a9.837,9.837,0,0,1-7.179-9.471" transform="translate(-31.385 -21.728)" fill="#ffc5b2"/>
        <path id="Path_8" data-name="Path 8" d="M203.9,116.719l-8.868,7.6a18.285,18.285,0,0,1-23.787,0l-8.868-7.6a18.285,18.285,0,0,1-6.343-12.577l-2.2-30.6a35.6,35.6,0,0,1,.24-7.761c1.444-9.757,7.177-15.919,12.683-13.465,6.371,2.838,7.044,14.033,16.378,14.033s9.719-10.137,16.379-14.034c5.2-3.043,11.239,3.709,12.683,13.467a35.6,35.6,0,0,1,.24,7.76l-2.2,30.6a18.286,18.286,0,0,1-6.344,12.577" transform="translate(-30.708 -10.304)" fill="#ffd7c2"/>
        <path id="Path_9" data-name="Path 9" d="M183.14,66.4h0c-9.334,0-10.008-11.2-16.379-14.034-5.5-2.453-11.239,3.709-12.683,13.466a35.6,35.6,0,0,0-.239,7.761l2.2,30.6a18.285,18.285,0,0,0,6.343,12.577l8.868,7.6a18.247,18.247,0,0,0,11.894,4.4Z" transform="translate(-30.708 -10.353)" fill="#ffc8b0"/>
        <path id="Path_10" data-name="Path 10" d="M182.467,117.142a29.84,29.84,0,0,1,9.619-.521,22.478,22.478,0,0,1,3.206.521v.08c-3.2.038-9.629.038-12.825,0Z" transform="translate(-36.448 -23.263)" fill="#552e20"/>
        <g id="Group_5" data-name="Group 5" transform="translate(146.018 73.824)" opacity="0.15">
          <g id="Group_4" data-name="Group 4">
            <g id="Group_3" data-name="Group 3" clip-path="url(#clip-path-3)">
              <path id="Path_11" data-name="Path 11" d="M188.879,92.25l-6.413,20.1h6.413Z" transform="translate(-182.466 -92.251)" fill="#25355b"/>
            </g>
          </g>
        </g>
      </g>
    </g>
    <g id="Group_9" data-name="Group 9" transform="translate(334.397 425.831)">
      <g id="Group_8" data-name="Group 8" clip-path="url(#clip-path-4)">
        <path id="Path_12" data-name="Path 12" d="M521.537,668.207h-90V649.12l24.413-4.605h42.019l23.563,4.445Z" transform="translate(-420.599 -554.574)" fill="#f7f7f7"/>
        <path id="Path_13" data-name="Path 13" d="M519.615,593.816c0,6.157-3.018,11.078-6.74,11.078s-6.741-3.54-6.741-7.908,3.018-7.907,6.741-7.907,6.74.37,6.74,4.737" transform="translate(-435.498 -543.501)" fill="#ffd1bb"/>
        <path id="Path_14" data-name="Path 14" d="M453.625,593.816c0,6.157,3.018,11.078,6.74,11.078s6.741-3.54,6.741-7.908-3.018-7.907-6.741-7.907-6.74.37-6.74,4.737" transform="translate(-425.01 -543.501)" fill="#ffd1bb"/>
        <path id="Path_15" data-name="Path 15" d="M505.4,566.4c-1.136-6.411-5.888-10.847-9.982-8.847-5.242,2.56-5.545,9.22-12.891,9.22s-7.877-7.356-12.89-9.22c-4.333-1.612-8.846,2.437-9.982,8.847a19.544,19.544,0,0,0-.189,5.1s.723,13.739,2.6,20.1,5.1,15.875,5.1,23.2v4.791a7.742,7.742,0,0,1-5.65,7.454,35.114,35.114,0,0,0,42.019,0,7.743,7.743,0,0,1-5.65-7.454V614.8c0-7.322,3.148-16.833,5.082-23.2s2.62-20.1,2.62-20.1a19.548,19.548,0,0,0-.189-5.1" transform="translate(-426.159 -537.107)" fill="#ffc5b2"/>
        <path id="Path_16" data-name="Path 16" d="M482.149,544.31c-14.324,0-24.612,10.795-24.612,23.7,0,12.454,6.749,27.882,8.129,30.346,2.242,4,5.477,4.6,10.065,4.6h12.838c4.588,0,7.822-.6,10.065-4.6,1.38-2.465,8.129-18,8.129-30.346,0-12.906-10.288-23.7-24.612-23.7" transform="translate(-425.791 -534.558)" fill="#414347"/>
        <path id="Path_17" data-name="Path 17" d="M482.384,546.127c-13.779,0-23.674,9.885-23.674,21.705,0,11.4,7.175,25.533,8.5,27.789,2.156,3.666,4.585,4.141,9,4.141h12.348c4.413,0,6.841-.475,9-4.141,1.328-2.257,8.5-16.481,8.5-27.789,0-11.82-9.9-21.7-23.674-21.705" transform="translate(-426.025 -534.921)" fill="#4f5356"/>
        <path id="Path_18" data-name="Path 18" d="M485.654,568.14l-.062-.065.022.022a.533.533,0,0,1,.04.043" transform="translate(-431.395 -539.305)" fill="#f9bb8f"/>
      </g>
    </g>
    <g id="Group_11" data-name="Group 11" transform="translate(384.066 438.407)">
      <g id="Group_10" data-name="Group 10" clip-path="url(#clip-path-5)">
        <rect id="Rectangle_19" data-name="Rectangle 19" width="14.287" height="7.889" fill="url(#radial-gradient)"/>
      </g>
    </g>
    <g id="Group_13" data-name="Group 13" transform="translate(397.445 448.433)">
      <g id="Group_12" data-name="Group 12" clip-path="url(#clip-path-6)">
        <rect id="Rectangle_20" data-name="Rectangle 20" width="12.472" height="12.471" transform="translate(0 0)" fill="url(#radial-gradient-2)"/>
      </g>
    </g>
    <g id="Group_15" data-name="Group 15" transform="translate(368.224 450.451)">
      <g id="Group_14" data-name="Group 14" clip-path="url(#clip-path-7)">
        <rect id="Rectangle_21" data-name="Rectangle 21" width="19.29" height="19.29" transform="translate(0 0)" fill="url(#radial-gradient-2)"/>
      </g>
    </g>
    <g id="Group_17" data-name="Group 17" transform="translate(397.445 466.314)">
      <g id="Group_16" data-name="Group 16" clip-path="url(#clip-path-8)">
        <rect id="Rectangle_22" data-name="Rectangle 22" width="9.796" height="9.797" fill="url(#radial-gradient-2)"/>
      </g>
    </g>
    <g id="Group_22" data-name="Group 22" transform="translate(95.067 424.772)">
      <g id="Group_21" data-name="Group 21" clip-path="url(#clip-path-9)">
        <path id="Path_24" data-name="Path 24" d="M229.371,659.9H122.392v-36.83l17.188-6.241a67.912,67.912,0,0,1,23.178-4.077h26.084a67.9,67.9,0,0,1,22.984,4.008l17.545,6.311Z" transform="translate(-119.515 -547.171)" fill="#f7f7f7"/>
        <path id="Path_25" data-name="Path 25" d="M220.273,604.959c0,5.634-3,10.137-6.709,10.137a7.257,7.257,0,0,1,0-14.472c3.706,0,6.709.339,6.709,4.335" transform="translate(-136.387 -544.748)" fill="#ffd1bb"/>
        <path id="Path_26" data-name="Path 26" d="M154.595,604.959c0,5.634,3,10.137,6.709,10.137a7.257,7.257,0,0,0,0-14.472c-3.706,0-6.709.339-6.709,4.335" transform="translate(-125.948 -544.748)" fill="#ffd1bb"/>
        <path id="Path_27" data-name="Path 27" d="M183.156,560.817l-.1,0c-14.112,0-24.248,10.731-24.248,23.342s1.933,20.291,1.933,20.291c.144,1.8,11.3,2.7,22.414,2.694,11.052,0,22.072-.9,22.216-2.694,0,0,1.933-7.679,1.933-20.291,0-12.582-10.089-23.29-24.148-23.34" transform="translate(-126.789 -536.796)" fill="#414347"/>
        <path id="Path_28" data-name="Path 28" d="M202.888,624.683c0,8.484-8.221,18.8-18.363,18.8s-18.363-10.311-18.363-18.8,8.222-11.928,18.363-11.928,18.363,3.443,18.363,11.928" transform="translate(-128.258 -547.171)" fill="#ffc5b2"/>
        <path id="Path_29" data-name="Path 29" d="M199.47,627.858h0a35.243,35.243,0,0,1-32.087,0c-2.955-1.511-4.906-6.84-5.143-10.15,0,0-1.578-2.114-1.578-9.757,0-7.726,3.134-8.06,7.446-6.139,4.99,2.224,8.007,8.519,15.318,8.519s10.294-5.466,15.511-8.519c4.074-2.384,7.253-1.587,7.253,6.139,0,7.642-1.578,9.757-1.578,9.757-.238,3.311-2.188,8.64-5.143,10.15" transform="translate(-127.16 -544.748)" fill="#ffd7c2"/>
        <path id="Path_30" data-name="Path 30" d="M189.237,642.49c-.009-1.13,0-11.3,0-11.3l5.4,5.392Z" transform="translate(-132.867 -550.853)" fill="#ffd7c2"/>
        <g id="Group_20" data-name="Group 20" transform="translate(50.961 80.333)" opacity="0.15">
          <g id="Group_19" data-name="Group 19">
            <g id="Group_18" data-name="Group 18" clip-path="url(#clip-path-10)">
              <path id="Path_31" data-name="Path 31" d="M187.88,642.49c.009-1.13,0-11.3,0-11.3l-5.4,5.392Z" transform="translate(-182.479 -631.186)" fill="#25355b"/>
            </g>
          </g>
        </g>
        <path id="Path_32" data-name="Path 32" d="M184.211,604.791a57.79,57.79,0,0,0,7.474-1.988,26.073,26.073,0,0,1-7.474,1.988" transform="translate(-131.864 -545.184)" fill="#ffc8b0"/>
        <path id="Path_33" data-name="Path 33" d="M186.8,602.62c1.539.266,3.072-.4,4.561-.906,1.3-.5,3.139-1.372,4.442-1.959-2.848,1.392-5.961,3.367-9,2.865" transform="translate(-132.381 -544.575)" fill="#ffc8b0"/>
        <path id="Path_34" data-name="Path 34" d="M198.978,601.084a43.023,43.023,0,0,0,5.33-1.642,9.124,9.124,0,0,1-5.33,1.642" transform="translate(-134.813 -544.512)" fill="#ffc8b0"/>
        <path id="Path_35" data-name="Path 35" d="M192.642,600.367c1.194-.533,2.41-1.075,3.588-1.682.678-.4,1.424-.835,2.109-1.2a19.34,19.34,0,0,1-5.7,2.881" transform="translate(-133.548 -544.121)" fill="#ffc8b0"/>
        <path id="Path_36" data-name="Path 36" d="M199.538,599.754a20.863,20.863,0,0,0,3.414-1.1,2.238,2.238,0,0,0,1.032-.729,2.141,2.141,0,0,1-.972.98,6,6,0,0,1-3.473.852" transform="translate(-134.925 -544.209)" fill="#ffc8b0"/>
        <path id="Path_37" data-name="Path 37" d="M189.621,605.713a19.8,19.8,0,0,0-3.524,2.706,3.434,3.434,0,0,1-3.989.518,4.736,4.736,0,0,0,3.756-1.117,7.566,7.566,0,0,1,3.757-2.107" transform="translate(-131.443 -545.765)" fill="#ffc8b0"/>
        <path id="Path_38" data-name="Path 38" d="M186.7,596.161a24.849,24.849,0,0,0-13.4,1.958,18.472,18.472,0,0,1,13.4-1.958" transform="translate(-129.684 -543.757)" fill="#ffc8b0"/>
        <path id="Path_39" data-name="Path 39" d="M176.951,594.62c-2.466.123-4.57,1.493-6.2,3.987,1.452-2.913,3.614-4.315,6.2-3.987" transform="translate(-129.174 -543.54)" fill="#ffc8b0"/>
        <path id="Path_40" data-name="Path 40" d="M192.092,597.581a15.99,15.99,0,0,1-10.56,1.5,36.927,36.927,0,0,0,10.56-1.5" transform="translate(-131.328 -544.14)" fill="#ffc8b0"/>
        <path id="Path_41" data-name="Path 41" d="M183.942,604.885c-2.258,1.06-4.819,2.5-7.1.863,2.414.669,4.7-.744,7.1-.863" transform="translate(-130.391 -545.599)" fill="#ffc8b0"/>
        <path id="Path_42" data-name="Path 42" d="M184.918,606.244a15.389,15.389,0,0,1-1.728.557l-1.726.5a4.089,4.089,0,0,1-3.519-.757c2.381.784,4.6-.564,6.973-.3" transform="translate(-130.612 -545.864)" fill="#ffc8b0"/>
        <path id="Path_43" data-name="Path 43" d="M201.149,601.7c-1.766,3.466-4.529,6.058-7.5,6.333a11.842,11.842,0,0,1-1.263-.032c.415-.126.827-.179,1.233-.3,2.875-.815,5.331-3.168,7.532-6" transform="translate(-133.496 -544.964)" fill="#ffc8b0"/>
        <path id="Path_44" data-name="Path 44" d="M203.387,594.294a8.965,8.965,0,0,0-3.875.83,5.656,5.656,0,0,1-3.96.542,9.374,9.374,0,0,0,3.859-1.038,5.542,5.542,0,0,1,3.976-.334" transform="translate(-134.129 -543.439)" fill="#ffc8b0"/>
        <path id="Path_45" data-name="Path 45" d="M177.572,599.586c-1.757.094-3.431,1.047-5.192.756,1.739-.186,3.439-1.139,5.192-.756" transform="translate(-129.5 -544.523)" fill="#ffc8b0"/>
        <path id="Path_46" data-name="Path 46" d="M195.489,591.489a10.038,10.038,0,0,0-3.724,1.228,5.173,5.173,0,0,1-3.864.787c2.626-.295,4.9-2.907,7.589-2.015" transform="translate(-132.6 -542.887)" fill="#ffc8b0"/>
        <path id="Path_47" data-name="Path 47" d="M179.555,601.719a8.489,8.489,0,0,0-3.371,1.226,4.389,4.389,0,0,1-3.523.789c2.387-.3,4.436-2.9,6.895-2.015" transform="translate(-129.556 -544.93)" fill="#ffc8b0"/>
        <path id="Path_48" data-name="Path 48" d="M192.44,582.675a19.512,19.512,0,0,0-12.4,1.612,17.036,17.036,0,0,1,12.4-1.612" transform="translate(-131.03 -541.058)" fill="#ffc8b0"/>
        <path id="Path_49" data-name="Path 49" d="M200.021,586.544a12.074,12.074,0,0,0-8.772-1.789,10.343,10.343,0,0,1,8.772,1.789" transform="translate(-133.269 -541.512)" fill="#ffc8b0"/>
        <path id="Path_50" data-name="Path 50" d="M193.594,590.977a15.982,15.982,0,0,0-6.264.689,13.8,13.8,0,0,1-6.3.751l1.58-.085a15.886,15.886,0,0,0,4.669-1,12.506,12.506,0,0,1,6.314-.351" transform="translate(-131.229 -542.772)" fill="#ffc8b0"/>
        <path id="Path_51" data-name="Path 51" d="M204.688,592.887a14.758,14.758,0,0,0-9.753-2.706,10.971,10.971,0,0,1,9.753,2.706" transform="translate(-134.006 -542.607)" fill="#ffc8b0"/>
        <path id="Path_52" data-name="Path 52" d="M200.9,590.161a13.464,13.464,0,0,0-9.753-2.706,11.759,11.759,0,0,1,9.753,2.706" transform="translate(-133.25 -542.075)" fill="#ffc8b0"/>
        <path id="Path_53" data-name="Path 53" d="M188.567,589.19a15.473,15.473,0,0,0-11.059,3.342,14.176,14.176,0,0,1,11.059-3.342" transform="translate(-130.525 -542.434)" fill="#ffc8b0"/>
        <path id="Path_54" data-name="Path 54" d="M192.157,586.206a23.256,23.256,0,0,0-14.273,2.361,18.208,18.208,0,0,1,14.273-2.361" transform="translate(-130.6 -541.756)" fill="#ffc8b0"/>
        <path id="Path_55" data-name="Path 55" d="M187.578,584.306a44.838,44.838,0,0,0-6.9,1.883,13.4,13.4,0,0,1,6.9-1.883" transform="translate(-131.158 -541.488)" fill="#ffc8b0"/>
        <path id="Path_56" data-name="Path 56" d="M189.324,562.326a1.709,1.709,0,0,1,2.287.98,3.765,3.765,0,0,0-2.287-.98" transform="translate(-132.885 -537.071)" fill="#ffc8b0"/>
        <path id="Path_57" data-name="Path 57" d="M192.33,562.337a1.651,1.651,0,0,1,1.144,2.45,2.593,2.593,0,0,0-1.144-2.45" transform="translate(-133.485 -537.1)" fill="#ffc8b0"/>
        <path id="Path_58" data-name="Path 58" d="M192.758,564.068a1.535,1.535,0,0,1-.8,1.852,10.637,10.637,0,0,0,.8-1.852" transform="translate(-133.411 -537.446)" fill="#ffc8b0"/>
        <path id="Path_59" data-name="Path 59" d="M190.834,564.481c-.321,1.534-2.286,2.038-3.54,1.307a3.285,3.285,0,0,0,3.54-1.307" transform="translate(-132.479 -537.529)" fill="#ffc8b0"/>
        <path id="Path_60" data-name="Path 60" d="M189.01,564.406a2.241,2.241,0,0,1-3.213-1.388,3.2,3.2,0,0,0,3.213,1.388" transform="translate(-132.18 -537.237)" fill="#ffc8b0"/>
        <path id="Path_61" data-name="Path 61" d="M188.584,562.862a1.109,1.109,0,0,1-1.58-1.307c.2.894.779,1.152,1.58,1.307" transform="translate(-132.408 -536.944)" fill="#ffc8b0"/>
        <path id="Path_62" data-name="Path 62" d="M194.941,564.492a2.327,2.327,0,0,1-.944,2.8,5.564,5.564,0,0,0,.944-2.8" transform="translate(-133.818 -537.531)" fill="#ffc8b0"/>
        <path id="Path_63" data-name="Path 63" d="M191.694,566.857a2.352,2.352,0,0,1-2.5.545,17.274,17.274,0,0,0,2.5-.545" transform="translate(-132.858 -538.003)" fill="#ffc8b0"/>
        <path id="Path_64" data-name="Path 64" d="M196.258,567.623a5.655,5.655,0,0,1-4.212,4.357,8.613,8.613,0,0,0,4.212-4.357" transform="translate(-133.429 -538.156)" fill="#ffc8b0"/>
        <path id="Path_65" data-name="Path 65" d="M197.083,565.672a2.443,2.443,0,0,1,1.38,3.3,3.735,3.735,0,0,0-1.38-3.3" transform="translate(-134.435 -537.767)" fill="#ffc8b0"/>
        <path id="Path_66" data-name="Path 66" d="M191.5,570.046a5.039,5.039,0,0,1-6.889-1.016,8.1,8.1,0,0,0,1.56,1.02,5.9,5.9,0,0,0,5.33,0" transform="translate(-131.942 -538.437)" fill="#ffc8b0"/>
        <path id="Path_67" data-name="Path 67" d="M186.9,568.132a1.869,1.869,0,0,1-1.888-1.779,4.391,4.391,0,0,0,1.888,1.779" transform="translate(-132.024 -537.903)" fill="#ffc8b0"/>
        <path id="Path_68" data-name="Path 68" d="M191.99,567.884a2.131,2.131,0,0,1-3,1.5,3.1,3.1,0,0,0,3-1.5" transform="translate(-132.819 -538.208)" fill="#ffc8b0"/>
        <path id="Path_69" data-name="Path 69" d="M185.643,565.21a2.206,2.206,0,0,1-1.171-3.077,3.481,3.481,0,0,0,1.171,3.077" transform="translate(-131.864 -537.06)" fill="#ffc8b0"/>
        <path id="Path_70" data-name="Path 70" d="M196.467,570.481a3.89,3.89,0,0,1-4.829,3.449,4.7,4.7,0,0,0,4.829-3.449" transform="translate(-133.347 -538.727)" fill="#ffc8b0"/>
        <path id="Path_71" data-name="Path 71" d="M195.449,562.632a2.885,2.885,0,0,1,2.8,2.433,5.131,5.131,0,0,0-2.8-2.433" transform="translate(-134.108 -537.159)" fill="#ffc8b0"/>
        <path id="Path_72" data-name="Path 72" d="M197.974,574.791a4.643,4.643,0,0,1-4.022,3.086,7.805,7.805,0,0,0,4.022-3.086" transform="translate(-133.809 -539.588)" fill="#ffc8b0"/>
        <path id="Path_73" data-name="Path 73" d="M200.648,576.822a4.642,4.642,0,0,1-4.62,2.087,7.809,7.809,0,0,0,4.62-2.087" transform="translate(-134.224 -539.994)" fill="#ffc8b0"/>
        <path id="Path_74" data-name="Path 74" d="M199.644,580.854a8.53,8.53,0,0,1-7.914-.5,12.475,12.475,0,0,0,7.914.5" transform="translate(-133.366 -540.7)" fill="#ffc8b0"/>
        <path id="Path_75" data-name="Path 75" d="M203.2,584.575a7.169,7.169,0,0,1-5.31-1.921,10.591,10.591,0,0,0,5.31,1.921" transform="translate(-134.597 -541.159)" fill="#ffc8b0"/>
        <path id="Path_76" data-name="Path 76" d="M181.941,565.909a1.951,1.951,0,0,1,.109-3.05,3.028,3.028,0,0,0-.109,3.05" transform="translate(-131.275 -537.205)" fill="#ffc8b0"/>
        <path id="Path_77" data-name="Path 77" d="M187.9,573.449a3.471,3.471,0,0,1-3.339-1.925,7.415,7.415,0,0,0,3.339,1.925" transform="translate(-131.934 -538.936)" fill="#ffc8b0"/>
        <path id="Path_78" data-name="Path 78" d="M189.035,575.3a3.973,3.973,0,0,1-3.885-.508,10.47,10.47,0,0,0,3.885.508" transform="translate(-132.051 -539.588)" fill="#ffc8b0"/>
        <path id="Path_79" data-name="Path 79" d="M182.755,569.565a2.6,2.6,0,0,1-2.686-2.034,5,5,0,0,0,2.686,2.034" transform="translate(-131.036 -538.138)" fill="#ffc8b0"/>
        <path id="Path_80" data-name="Path 80" d="M186.3,576.174a4.1,4.1,0,0,1-4-2.378,7.076,7.076,0,0,0,4,2.378" transform="translate(-131.482 -539.389)" fill="#ffc8b0"/>
        <path id="Path_81" data-name="Path 81" d="M180.722,566.7a2.029,2.029,0,0,1-1.239-1.937,3.493,3.493,0,0,0,1.239,1.937" transform="translate(-130.919 -537.586)" fill="#ffc8b0"/>
        <path id="Path_82" data-name="Path 82" d="M200.549,570.8a2.419,2.419,0,0,1-.654,3.05,5.145,5.145,0,0,0,.654-3.05" transform="translate(-134.996 -538.791)" fill="#ffc8b0"/>
        <path id="Path_83" data-name="Path 83" d="M191.322,576.561a5.551,5.551,0,0,1-4.357,1.053,18.172,18.172,0,0,0,4.357-1.053" transform="translate(-132.414 -539.942)" fill="#ffc8b0"/>
        <path id="Path_84" data-name="Path 84" d="M195.372,574.854a11.62,11.62,0,0,1-9.213,3.731,13.269,13.269,0,0,0,9.213-3.731" transform="translate(-132.253 -539.601)" fill="#ffc8b0"/>
        <path id="Path_85" data-name="Path 85" d="M183.742,577.951c-2.255.079-4.177-1.755-5.046-3.7,1.284,1.7,2.863,3.3,5.046,3.7" transform="translate(-130.762 -539.479)" fill="#ffc8b0"/>
        <path id="Path_86" data-name="Path 86" d="M185.093,580.369a10.819,10.819,0,0,1-7.585-2.442,18.8,18.8,0,0,0,7.585,2.442" transform="translate(-130.525 -540.215)" fill="#ffc8b0"/>
        <path id="Path_87" data-name="Path 87" d="M183.177,582.073a10.763,10.763,0,0,1-5.717.258c1.67.029,4.035-.15,5.717-.258" transform="translate(-130.515 -541.043)" fill="#ffc8b0"/>
        <path id="Path_88" data-name="Path 88" d="M180.5,585.137a5.67,5.67,0,0,1-4.417,1.235,8.366,8.366,0,0,0,4.417-1.235" transform="translate(-130.24 -541.655)" fill="#ffc8b0"/>
        <path id="Path_89" data-name="Path 89" d="M179.6,589.44a5.67,5.67,0,0,1-4.417,1.235,8.366,8.366,0,0,0,4.417-1.235" transform="translate(-130.061 -542.514)" fill="#ffc8b0"/>
      </g>
    </g>
    <g id="Group_30" data-name="Group 30">
      <g id="Group_29" data-name="Group 29" clip-path="url(#clip-path)">
        <path id="Path_91" data-name="Path 91" d="M175.063,643.833a56.766,56.766,0,1,1,56.766-56.766,56.83,56.83,0,0,1-56.766,56.766m0-112.732a55.966,55.966,0,1,0,55.966,55.966A56.029,56.029,0,0,0,175.063,531.1" transform="translate(-23.63 -105.929)" fill="#00336a"/>
        <path id="Path_92" data-name="Path 92" d="M474.133,645.156A56.766,56.766,0,1,1,530.9,588.389a56.831,56.831,0,0,1-56.766,56.766m0-112.733A55.966,55.966,0,1,0,530.1,588.389a56.029,56.029,0,0,0-55.966-55.966" transform="translate(-83.37 -106.193)" fill="#00336a"/>
        <path id="Path_93" data-name="Path 93" d="M526.4,110.371l-9.374,7.193a21.058,21.058,0,0,1-25.145,0l-9.372-7.193c-3.921-3.009-6.336-12.217-6.705-16.831l-2.482-26.052c-1.3-16.193,13.014-29.971,31.132-29.971s32.431,13.778,31.133,29.971L533.108,93.54c-.37,4.614-2.784,13.822-6.705,16.831" transform="translate(-94.531 -7.494)" fill="#414347"/>
        <path id="Path_94" data-name="Path 94" d="M549.8,194.81H449.713v-25.7l23.476-4.886h53.134l23.476,4.886Z" transform="translate(-89.831 -32.805)" fill="#f7f7f7"/>
        <path id="Path_95" data-name="Path 95" d="M551.842,100.119c0,7.786-3.816,14.008-8.523,14.008s-8.524-4.477-8.524-10,3.816-10,8.524-10,8.523.468,8.523,5.991" transform="translate(-106.826 -18.802)" fill="#ffd1bb"/>
        <path id="Path_96" data-name="Path 96" d="M468.4,100.119c0,7.786,3.816,14.008,8.523,14.008s8.524-4.477,8.524-10-3.816-10-8.524-10-8.523.468-8.523,5.991" transform="translate(-93.563 -18.802)" fill="#ffd1bb"/>
        <path id="Path_97" data-name="Path 97" d="M525.038,144.085V110.576H486.194v33.509a9.789,9.789,0,0,1-7.145,9.425l1.525,5.831a20.47,20.47,0,0,0,6.523,10.4l5.242,4.468a20.466,20.466,0,0,0,26.555,0l5.241-4.468a20.466,20.466,0,0,0,6.523-10.4l1.525-5.831a9.79,9.79,0,0,1-7.145-9.425" transform="translate(-95.691 -22.088)" fill="#ffc5b2"/>
        <path id="Path_98" data-name="Path 98" d="M525.6,120.368l-8.825,7.559a18.2,18.2,0,0,1-23.674,0l-8.826-7.559a18.2,18.2,0,0,1-6.312-12.517L475.781,77.4a35.464,35.464,0,0,1,.238-7.724c1.437-9.71,7.144-6.021,12.622-3.58,6.34,2.826,7.011,4.146,16.3,4.146s9.673-.267,16.3-4.146c5.177-3.029,11.185-6.13,12.622,3.581A35.406,35.406,0,0,1,534.1,77.4l-2.186,30.45a18.2,18.2,0,0,1-6.313,12.517" transform="translate(-95.017 -12.606)" fill="#ffd7c2"/>
        <path id="Path_99" data-name="Path 99" d="M504.943,70.3h0c-9.289,0-9.96-1.32-16.3-4.145-5.478-2.442-11.185-6.131-12.622,3.58a35.41,35.41,0,0,0-.239,7.723l2.186,30.449a18.2,18.2,0,0,0,6.313,12.517l8.825,7.559a18.162,18.162,0,0,0,11.837,4.376Z" transform="translate(-95.017 -12.662)" fill="#ffc8b0"/>
        <path id="Path_100" data-name="Path 100" d="M525.6,116.685l-8.825,7.559a18.2,18.2,0,0,1-23.674,0l-8.826-7.559a18.2,18.2,0,0,1-6.312-12.517l-2.186-30.449a35.464,35.464,0,0,1,.238-7.724c1.437-9.71,5.47-12.184,10.283-16.247,5.488-4.633,9.35-5.076,18.639-5.076s13.147.443,18.3,4.791S532.428,56.284,533.864,66a35.406,35.406,0,0,1,.239,7.722l-2.186,30.45a18.2,18.2,0,0,1-6.313,12.517" transform="translate(-95.017 -8.923)" fill="#ffd7c2"/>
        <path id="Path_101" data-name="Path 101" d="M504.943,44.671h0c-9.289,0-13.151.442-18.64,5.076-4.814,4.064-8.845,6.537-10.282,16.247a35.41,35.41,0,0,0-.239,7.723l2.186,30.45a18.2,18.2,0,0,0,6.313,12.517l8.825,7.558a18.16,18.16,0,0,0,11.837,4.377Z" transform="translate(-95.017 -8.923)" fill="#ffc8b0"/>
        <path id="Path_102" data-name="Path 102" d="M504.272,118.9a29.558,29.558,0,0,1,9.573-.521,22.319,22.319,0,0,1,3.191.521v.08c-3.181.038-9.585.038-12.765,0Z" transform="translate(-100.729 -23.614)" fill="#552e20"/>
        <g id="Group_25" data-name="Group 25" transform="translate(403.543 75.326)" opacity="0.15">
          <g id="Group_24" data-name="Group 24">
            <g id="Group_23" data-name="Group 23" clip-path="url(#clip-path-12)">
              <path id="Path_103" data-name="Path 103" d="M510.654,94.128l-6.382,20h6.382Z" transform="translate(-504.272 -94.128)" fill="#25355b"/>
            </g>
          </g>
        </g>
        <path id="Path_104" data-name="Path 104" d="M71.6,243.8v1.5H68.318v9.524H66.67v-9.524H63.388v-1.5Z" transform="translate(-12.662 -48.7)" fill="#00336a"/>
        <path id="Path_105" data-name="Path 105" d="M78.7,248.244h1.7l-4.643,11.11H74.085l1.616-3.97-2.993-7.14h1.7l2.145,5.2Z" transform="translate(-14.524 -49.587)" fill="#00336a"/>
        <path id="Path_106" data-name="Path 106" d="M91.844,251.941a3.7,3.7,0,0,1-3.713,3.923,2.965,2.965,0,0,1-2.594-1.3v4.738H83.969V248.2h1.568v1.12A3.035,3.035,0,0,1,88.131,248a3.733,3.733,0,0,1,3.713,3.937m-1.584.017a2.356,2.356,0,1,0-4.706,0,2.409,2.409,0,0,0,2.386,2.433,2.33,2.33,0,0,0,2.321-2.433" transform="translate(-16.773 -49.539)" fill="#00336a"/>
        <path id="Path_107" data-name="Path 107" d="M103.12,252.565H97.165a2.142,2.142,0,0,0,2.3,1.841,2.438,2.438,0,0,0,2.113-1.088l1.248.624A3.922,3.922,0,1,1,99.406,248a3.662,3.662,0,0,1,3.746,3.89c0,.208-.016.432-.032.672m-1.536-1.264a2.04,2.04,0,0,0-2.161-1.841,2.1,2.1,0,0,0-2.241,1.841Z" transform="translate(-19.086 -49.539)" fill="#00336a"/>
        <path id="Path_108" data-name="Path 108" d="M112.007,249.737c0-2.994.8-5.394,3.811-5.394s3.809,2.4,3.809,5.394c0,2.946-.8,5.394-3.809,5.394s-3.811-2.449-3.811-5.394m6.035,0c0-2.129-.448-3.906-2.225-3.906s-2.242,1.777-2.242,3.906c0,2.113.464,3.921,2.242,3.921s2.225-1.808,2.225-3.921" transform="translate(-22.374 -48.808)" fill="#00336a"/>
        <path id="Path_109" data-name="Path 109" d="M128.588,249.294a5.678,5.678,0,0,1,5.6-5.731,5.385,5.385,0,0,1,4.242,1.985l-1.216.976a3.879,3.879,0,0,0-3.01-1.424,4.082,4.082,0,0,0-3.97,4.194,4.041,4.041,0,0,0,3.97,4.147,3.878,3.878,0,0,0,3.01-1.426l1.216.977a5.383,5.383,0,0,1-4.242,1.985,5.637,5.637,0,0,1-5.6-5.683" transform="translate(-25.686 -48.652)" fill="#00336a"/>
        <path id="Path_110" data-name="Path 110" d="M142.248,251.926a3.93,3.93,0,1,1,3.922,3.938,3.819,3.819,0,0,1-3.922-3.938m6.291,0a2.363,2.363,0,1,0-2.369,2.465,2.372,2.372,0,0,0,2.369-2.465" transform="translate(-28.414 -49.539)" fill="#00336a"/>
        <path id="Path_111" data-name="Path 111" d="M166.186,251.4v4.274H164.6v-4.194c0-1.216-.641-1.969-1.649-1.969-1.233-.017-1.873.864-1.873,2.433v3.73h-1.585v-4.194c0-1.216-.64-1.969-1.568-1.969a1.93,1.93,0,0,0-1.969,2.145v4.018h-1.568V248.2h1.568v1.168a2.5,2.5,0,0,1,2.338-1.36,2.608,2.608,0,0,1,2.449,1.569A2.756,2.756,0,0,1,163.3,248c1.873,0,2.882,1.264,2.882,3.394" transform="translate(-30.839 -49.539)" fill="#00336a"/>
        <path id="Path_112" data-name="Path 112" d="M179.8,250.959a3.732,3.732,0,0,1-3.713,3.937,3.035,3.035,0,0,1-2.594-1.312v1.12h-1.569V243.162H173.5v5.17a2.966,2.966,0,0,1,2.594-1.3,3.7,3.7,0,0,1,3.713,3.923m-1.584-.017a2.33,2.33,0,0,0-2.321-2.433,2.458,2.458,0,0,0,0,4.914,2.382,2.382,0,0,0,2.321-2.482" transform="translate(-34.343 -48.572)" fill="#00336a"/>
        <path id="Path_113" data-name="Path 113" d="M183.727,244.591A1.074,1.074,0,1,1,184.8,245.6a1.039,1.039,0,0,1-1.072-1.008m.288,2.721h1.568v7.476h-1.568Z" transform="translate(-36.7 -48.656)" fill="#00336a"/>
        <path id="Path_114" data-name="Path 114" d="M195.983,251.4v4.274h-1.568v-4.178a1.743,1.743,0,0,0-1.7-1.953,2.024,2.024,0,0,0-2.161,2.113v4.018h-1.569V248.2h1.569v1.152A2.783,2.783,0,0,1,192.989,248c1.889,0,3.01,1.264,2.994,3.394" transform="translate(-37.751 -49.539)" fill="#00336a"/>
        <path id="Path_115" data-name="Path 115" d="M207.518,252.565h-5.955a2.142,2.142,0,0,0,2.3,1.841,2.438,2.438,0,0,0,2.113-1.088l1.248.624A3.921,3.921,0,1,1,203.8,248a3.663,3.663,0,0,1,3.746,3.89c0,.208-.017.432-.033.672m-1.536-1.264a2.04,2.04,0,0,0-2.161-1.841,2.1,2.1,0,0,0-2.241,1.841Z" transform="translate(-39.94 -49.539)" fill="#00336a"/>
        <path id="Path_116" data-name="Path 116" d="M217.458,243.162h1.568V254.7h-1.568v-1.12a3.005,3.005,0,0,1-2.578,1.312,3.937,3.937,0,0,1-.016-7.86,2.965,2.965,0,0,1,2.594,1.3Zm-.016,7.78a2.409,2.409,0,0,0-2.385-2.433,2.34,2.34,0,0,0-2.321,2.433,2.356,2.356,0,1,0,4.706,0" transform="translate(-42.181 -48.572)" fill="#00336a"/>
        <path id="Path_117" data-name="Path 117" d="M353.368,243.8v1.5h-3.282v9.524h-1.648v-9.524h-3.282v-1.5Z" transform="translate(-68.946 -48.7)" fill="#00336a"/>
        <path id="Path_118" data-name="Path 118" d="M360.463,248.244h1.7l-4.643,11.11h-1.664l1.616-3.97-2.993-7.14h1.7l2.145,5.2Z" transform="translate(-70.807 -49.587)" fill="#00336a"/>
        <path id="Path_119" data-name="Path 119" d="M373.611,251.941a3.7,3.7,0,0,1-3.713,3.923,2.966,2.966,0,0,1-2.594-1.3v4.738h-1.568V248.2H367.3v1.12A3.035,3.035,0,0,1,369.9,248a3.733,3.733,0,0,1,3.713,3.937m-1.585.017a2.356,2.356,0,1,0-4.706,0,2.409,2.409,0,0,0,2.385,2.433,2.33,2.33,0,0,0,2.321-2.433" transform="translate(-73.057 -49.539)" fill="#00336a"/>
        <path id="Path_120" data-name="Path 120" d="M384.887,252.565h-5.955a2.142,2.142,0,0,0,2.3,1.841,2.438,2.438,0,0,0,2.113-1.088l1.248.624A3.922,3.922,0,1,1,381.173,248a3.662,3.662,0,0,1,3.746,3.89c0,.208-.016.432-.032.672M383.35,251.3a2.04,2.04,0,0,0-2.161-1.841,2.1,2.1,0,0,0-2.241,1.841Z" transform="translate(-75.369 -49.539)" fill="#00336a"/>
        <path id="Path_121" data-name="Path 121" d="M400.527,254.832l-1.024-2.785h-4.594l-1.024,2.785h-1.729l4.178-11.029h1.76l4.162,11.029Zm-5.09-4.226h3.538l-1.761-4.8Z" transform="translate(-78.334 -48.7)" fill="#00336a"/>
        <path id="Path_122" data-name="Path 122" d="M416.846,254.832l-2.834-4.113h-1.248v4.113h-1.649V243.8h4.21a3.493,3.493,0,0,1,.593,6.916l2.9,4.113Zm-4.082-9.525v3.97h2.161c1.521,0,2.145-.817,2.145-1.985a1.789,1.789,0,0,0-1.761-1.985Z" transform="translate(-82.121 -48.7)" fill="#00336a"/>
        <path id="Path_123" data-name="Path 123" d="M429.747,252.565h-5.955a2.143,2.143,0,0,0,2.305,1.841,2.435,2.435,0,0,0,2.113-1.088l1.248.624A3.922,3.922,0,1,1,426.032,248a3.662,3.662,0,0,1,3.746,3.89c0,.208-.016.432-.031.672m-1.537-1.264a2.04,2.04,0,0,0-2.161-1.841,2.1,2.1,0,0,0-2.242,1.841Z" transform="translate(-84.33 -49.539)" fill="#00336a"/>
        <path id="Path_124" data-name="Path 124" d="M433.355,251.926A3.892,3.892,0,0,1,437.389,248a3.75,3.75,0,0,1,2.914,1.28l-1.041.977a2.453,2.453,0,0,0-1.841-.785,2.457,2.457,0,1,0,0,4.914,2.458,2.458,0,0,0,1.841-.783l1.041.975a3.748,3.748,0,0,1-2.914,1.281,3.905,3.905,0,0,1-4.034-3.938" transform="translate(-86.564 -49.539)" fill="#00336a"/>
        <path id="Path_125" data-name="Path 125" d="M450.926,252.565h-5.955a2.142,2.142,0,0,0,2.3,1.841,2.438,2.438,0,0,0,2.113-1.088l1.248.624A3.922,3.922,0,1,1,447.212,248a3.662,3.662,0,0,1,3.746,3.89c0,.208-.016.432-.032.672m-1.536-1.264a2.04,2.04,0,0,0-2.161-1.841,2.1,2.1,0,0,0-2.241,1.841Z" transform="translate(-88.561 -49.539)" fill="#00336a"/>
        <path id="Path_126" data-name="Path 126" d="M460.866,243.162h1.568V254.7h-1.568v-1.12a3.006,3.006,0,0,1-2.578,1.312,3.937,3.937,0,0,1-.016-7.86,2.965,2.965,0,0,1,2.594,1.3Zm-.016,7.78a2.409,2.409,0,0,0-2.385-2.433,2.34,2.34,0,0,0-2.322,2.433,2.356,2.356,0,1,0,4.706,0" transform="translate(-90.802 -48.572)" fill="#00336a"/>
        <path id="Path_127" data-name="Path 127" d="M466.954,244.591a1.074,1.074,0,1,1,1.072,1.008,1.039,1.039,0,0,1-1.072-1.008m.288,2.721h1.568v7.476h-1.568Z" transform="translate(-93.275 -48.656)" fill="#00336a"/>
        <path id="Path_128" data-name="Path 128" d="M479.21,251.4v4.274h-1.568v-4.178a1.743,1.743,0,0,0-1.7-1.953,2.024,2.024,0,0,0-2.161,2.113v4.018h-1.569V248.2h1.569v1.152A2.783,2.783,0,0,1,476.216,248c1.889,0,3.01,1.264,2.994,3.394" transform="translate(-94.326 -49.539)" fill="#00336a"/>
        <path id="Path_129" data-name="Path 129" d="M489.465,248.2h1.569v6.452c0,3.474-1.6,4.85-4.114,4.85a3.83,3.83,0,0,1-3.425-2.065l1.328-.656a2.407,2.407,0,0,0,2.1,1.264c1.569,0,2.545-.9,2.545-3.266v-.192a3.1,3.1,0,0,1-2.577,1.28,3.937,3.937,0,0,1-.016-7.86,3.027,3.027,0,0,1,2.594,1.281Zm-.016,3.714a2.409,2.409,0,0,0-2.385-2.433,2.34,2.34,0,0,0-2.322,2.433,2.356,2.356,0,1,0,4.706,0" transform="translate(-96.515 -49.539)" fill="#00336a"/>
        <path id="Path_130" data-name="Path 130" d="M508.033,243.8h1.649v11.029h-1.649v-4.738h-5.09v4.738h-1.649V243.8h1.649v4.8h5.09Z" transform="translate(-100.134 -48.7)" fill="#00336a"/>
        <path id="Path_131" data-name="Path 131" d="M520.545,248.2h1.569v7.476h-1.569v-1.264a3.029,3.029,0,0,1-2.657,1.456,3.94,3.94,0,0,1,.063-7.86,2.919,2.919,0,0,1,2.594,1.312Zm-.016,3.73a2.449,2.449,0,0,0-2.4-2.45,2.462,2.462,0,0,0,.032,4.914,2.426,2.426,0,0,0,2.369-2.465" transform="translate(-102.723 -49.539)" fill="#00336a"/>
        <path id="Path_132" data-name="Path 132" d="M526.654,244.591a1.074,1.074,0,1,1,1.072,1.008,1.039,1.039,0,0,1-1.072-1.008m.288,2.721h1.568v7.476h-1.568Z" transform="translate(-105.2 -48.656)" fill="#00336a"/>
        <path id="Path_133" data-name="Path 133" d="M536.876,248.275l-.272,1.489a2.653,2.653,0,0,0-1.1-.256c-1.361,0-2,1.456-2,3.474v2.689h-1.584V248.2H533.5v1.681c.384-1.313,1.136-1.873,2.1-1.873a2.877,2.877,0,0,1,1.28.272" transform="translate(-106.251 -49.539)" fill="#00336a"/>
        <rect id="Rectangle_25" data-name="Rectangle 25" width="1.569" height="11.542" transform="translate(431.953 194.59)" fill="#00336a"/>
        <path id="Path_134" data-name="Path 134" d="M544.313,244.591a1.075,1.075,0,1,1,1.073,1.008,1.04,1.04,0,0,1-1.073-1.008m.289,2.721h1.569v7.476H544.6Z" transform="translate(-108.728 -48.656)" fill="#00336a"/>
        <path id="Path_135" data-name="Path 135" d="M556.569,251.4v4.274H555v-4.178a1.743,1.743,0,0,0-1.7-1.953,2.024,2.024,0,0,0-2.161,2.113v4.018h-1.569V248.2h1.569v1.152A2.783,2.783,0,0,1,553.575,248c1.889,0,3.01,1.264,2.994,3.394" transform="translate(-109.778 -49.539)" fill="#00336a"/>
        <path id="Path_136" data-name="Path 136" d="M568.1,252.565h-5.955a2.142,2.142,0,0,0,2.3,1.841,2.438,2.438,0,0,0,2.114-1.088l1.248.624A3.922,3.922,0,1,1,564.39,248a3.662,3.662,0,0,1,3.746,3.89c0,.208-.016.432-.032.672m-1.536-1.264a2.04,2.04,0,0,0-2.162-1.841,2.1,2.1,0,0,0-2.241,1.841Z" transform="translate(-111.967 -49.539)" fill="#00336a"/>
        <path id="Path_137" data-name="Path 137" d="M242.4,494.786v1.505h-3.282v9.525H237.47v-9.525h-3.282v-1.505Z" transform="translate(-46.78 -98.835)" fill="#00336a"/>
        <path id="Path_138" data-name="Path 138" d="M249.5,499.228h1.7l-4.643,11.11h-1.664l1.617-3.97-2.993-7.14h1.7l2.145,5.2Z" transform="translate(-48.641 -99.722)" fill="#00336a"/>
        <path id="Path_139" data-name="Path 139" d="M262.644,502.925a3.7,3.7,0,0,1-3.713,3.923,2.964,2.964,0,0,1-2.594-1.3v4.739h-1.568V499.18h1.568v1.12a3.035,3.035,0,0,1,2.594-1.312,3.733,3.733,0,0,1,3.713,3.937m-1.585.017a2.357,2.357,0,1,0-4.706,0,2.409,2.409,0,0,0,2.386,2.433,2.33,2.33,0,0,0,2.321-2.433" transform="translate(-50.891 -99.674)" fill="#00336a"/>
        <path id="Path_140" data-name="Path 140" d="M273.92,503.55h-5.955a2.142,2.142,0,0,0,2.3,1.841,2.438,2.438,0,0,0,2.113-1.088l1.248.624a3.922,3.922,0,1,1-3.426-5.94,3.662,3.662,0,0,1,3.746,3.89c0,.208-.016.432-.032.672m-1.536-1.264a2.04,2.04,0,0,0-2.161-1.841,2.1,2.1,0,0,0-2.241,1.841Z" transform="translate(-53.204 -99.674)" fill="#00336a"/>
        <path id="Path_141" data-name="Path 141" d="M291.356,502.695a3.1,3.1,0,0,1-3.282,3.122h-4.546v-11.03h4.194a2.749,2.749,0,0,1,3.042,2.834,2.309,2.309,0,0,1-1.409,2.321,2.7,2.7,0,0,1,2,2.754m-3.666-6.4h-2.514v3.041h2.546a1.525,1.525,0,0,0-.032-3.041m.064,8.019a1.765,1.765,0,0,0,1.953-1.777,1.741,1.741,0,0,0-1.873-1.793h-2.658v3.57Z" transform="translate(-56.635 -98.835)" fill="#00336a"/>
        <path id="Path_142" data-name="Path 142" d="M307.2,494.786v1.505h-3.282v9.525h-1.649v-9.525h-3.282v-1.505Z" transform="translate(-59.723 -98.835)" fill="#00336a"/>
        <path id="Path_143" data-name="Path 143" d="M308.728,502.909a3.93,3.93,0,1,1,3.922,3.939,3.819,3.819,0,0,1-3.922-3.939m6.291,0a2.363,2.363,0,1,0-2.369,2.466,2.373,2.373,0,0,0,2.369-2.466" transform="translate(-61.669 -99.674)" fill="#00336a"/>
        <path id="Path_144" data-name="Path 144" d="M327.864,502.381v4.275H326.3v-4.178a1.744,1.744,0,0,0-1.7-1.953,2.024,2.024,0,0,0-2.161,2.113v4.019h-1.569V499.18h1.569v1.152a2.782,2.782,0,0,1,2.433-1.344c1.889,0,3.01,1.264,2.994,3.393" transform="translate(-64.094 -99.674)" fill="#00336a"/>
        <path id="Path_145" data-name="Path 145" d="M331.728,504.414h1.456c0,.592.528,1.105,1.377,1.105.864,0,1.392-.433,1.392-.992,0-.5-.4-.753-.96-.881l-1.009-.24c-1.392-.369-2.033-1.089-2.033-2.193a2.425,2.425,0,0,1,2.658-2.226c1.28,0,2.657.672,2.657,2.242h-1.5a1.042,1.042,0,0,0-1.12-.913,1.012,1.012,0,0,0-1.105.945c0,.464.432.719.9.832l1.137.271a2.185,2.185,0,0,1,1.953,2.193c0,1.425-1.408,2.289-2.945,2.289a2.643,2.643,0,0,1-2.85-2.434" transform="translate(-66.263 -99.674)" fill="#00336a"/>
        <path id="Path_146" data-name="Path 146" d="M346.554,499.228h1.568V506.7h-1.568v-1.136a2.8,2.8,0,0,1-2.418,1.328c-1.889,0-3.025-1.264-3.009-3.394v-4.274H342.7v4.226a1.749,1.749,0,0,0,1.7,1.969,2.037,2.037,0,0,0,2.161-2.129Z" transform="translate(-68.141 -99.722)" fill="#00336a"/>
        <path id="Path_147" data-name="Path 147" d="M357.75,499.259l-.272,1.489a2.65,2.65,0,0,0-1.1-.256c-1.36,0-2,1.456-2,3.473v2.69h-1.584v-7.476h1.584v1.681c.384-1.312,1.137-1.873,2.1-1.873a2.873,2.873,0,0,1,1.28.272" transform="translate(-70.47 -99.674)" fill="#00336a"/>
        <path id="Path_148" data-name="Path 148" d="M367.339,503.55h-5.955a2.142,2.142,0,0,0,2.3,1.841A2.438,2.438,0,0,0,365.8,504.3l1.248.624a3.922,3.922,0,1,1-3.426-5.94,3.662,3.662,0,0,1,3.746,3.89c0,.208-.016.432-.032.672m-1.536-1.264a2.04,2.04,0,0,0-2.161-1.841,2.1,2.1,0,0,0-2.241,1.841Z" transform="translate(-71.864 -99.674)" fill="#00336a"/>
        <path id="Path_149" data-name="Path 149" d="M77.19,763.2V764.7H73.908v9.525H72.26V764.7H68.978V763.2Z" transform="translate(-13.778 -152.45)" fill="#00336a"/>
        <path id="Path_150" data-name="Path 150" d="M84.285,767.638h1.7l-4.643,11.11H79.675l1.617-3.97-2.993-7.14H80l2.145,5.2Z" transform="translate(-15.64 -153.337)" fill="#00336a"/>
        <path id="Path_151" data-name="Path 151" d="M97.434,771.334a3.7,3.7,0,0,1-3.713,3.924,2.964,2.964,0,0,1-2.594-1.3V778.7H89.559V767.59h1.568v1.12a3.036,3.036,0,0,1,2.594-1.312,3.732,3.732,0,0,1,3.713,3.936m-1.584.017a2.356,2.356,0,1,0-4.706,0,2.409,2.409,0,0,0,2.386,2.433,2.329,2.329,0,0,0,2.321-2.433" transform="translate(-17.89 -153.289)" fill="#00336a"/>
        <path id="Path_152" data-name="Path 152" d="M108.709,771.96h-5.955a2.142,2.142,0,0,0,2.3,1.841,2.438,2.438,0,0,0,2.113-1.088l1.248.624a3.921,3.921,0,1,1-3.426-5.939,3.662,3.662,0,0,1,3.746,3.889c0,.209-.016.432-.032.673m-1.536-1.264a2.04,2.04,0,0,0-2.161-1.841,2.1,2.1,0,0,0-2.241,1.841Z" transform="translate(-20.202 -153.289)" fill="#00336a"/>
        <path id="Path_153" data-name="Path 153" d="M117.4,768.687a5.679,5.679,0,0,1,5.6-5.731,5.385,5.385,0,0,1,4.242,1.985l-1.216.977a3.88,3.88,0,0,0-3.01-1.425,4.083,4.083,0,0,0-3.97,4.195,4.04,4.04,0,0,0,3.97,4.146,3.88,3.88,0,0,0,3.01-1.425l1.216.977A5.386,5.386,0,0,1,123,774.371a5.638,5.638,0,0,1-5.6-5.683" transform="translate(-23.45 -152.402)" fill="#00336a"/>
        <path id="Path_154" data-name="Path 154" d="M143.209,763.2V764.7h-3.282v9.525h-1.648V764.7H135V763.2Z" transform="translate(-26.966 -152.45)" fill="#00336a"/>
        <path id="Path_155" data-name="Path 155" d="M153.993,769.824V774.1h-1.568V769.92a1.744,1.744,0,0,0-1.7-1.953,2.033,2.033,0,0,0-2.161,2.113V774.1H147V762.556h1.569v5.2A2.8,2.8,0,0,1,151,766.431c1.889,0,3.01,1.264,2.994,3.393" transform="translate(-29.363 -152.322)" fill="#00336a"/>
        <path id="Path_156" data-name="Path 156" d="M158.177,763.985a1.075,1.075,0,1,1,1.072,1.008,1.04,1.04,0,0,1-1.072-1.008m.288,2.722h1.568v7.476h-1.568Z" transform="translate(-31.596 -152.406)" fill="#00336a"/>
        <path id="Path_157" data-name="Path 157" d="M170.433,770.791v4.275h-1.568v-4.179a1.743,1.743,0,0,0-1.7-1.953,2.024,2.024,0,0,0-2.161,2.113v4.019h-1.569V767.59h1.569v1.152a2.782,2.782,0,0,1,2.433-1.344c1.889,0,3.01,1.264,2.994,3.393" transform="translate(-32.647 -153.289)" fill="#00336a"/>
        <path id="Path_158" data-name="Path 158" d="M187.1,763.2h1.649v11.03H187.1v-4.739h-5.09v4.739h-1.649V763.2h1.649V768h5.09Z" transform="translate(-36.027 -152.45)" fill="#00336a"/>
        <path id="Path_159" data-name="Path 159" d="M199.608,767.59h1.568v7.476h-1.568V773.8a3.028,3.028,0,0,1-2.657,1.457,3.94,3.94,0,0,1,.063-7.86,2.92,2.92,0,0,1,2.594,1.312Zm-.016,3.729a2.449,2.449,0,0,0-2.4-2.449,2.462,2.462,0,0,0,.032,4.914,2.426,2.426,0,0,0,2.369-2.465" transform="translate(-38.615 -153.289)" fill="#00336a"/>
        <path id="Path_160" data-name="Path 160" d="M205.717,763.985a1.074,1.074,0,1,1,1.072,1.008,1.04,1.04,0,0,1-1.072-1.008m.288,2.722h1.569v7.476h-1.569Z" transform="translate(-41.092 -152.406)" fill="#00336a"/>
        <path id="Path_161" data-name="Path 161" d="M215.939,767.67l-.272,1.488a2.652,2.652,0,0,0-1.1-.256c-1.361,0-2,1.456-2,3.474v2.69h-1.585V767.59h1.585v1.681c.384-1.313,1.136-1.873,2.1-1.873a2.878,2.878,0,0,1,1.28.272" transform="translate(-42.143 -153.289)" fill="#00336a"/>
        <path id="Path_162" data-name="Path 162" d="M352.67,763.2V764.7h-3.282v9.525h-1.648V764.7h-3.282V763.2Z" transform="translate(-68.806 -152.45)" fill="#00336a"/>
        <path id="Path_163" data-name="Path 163" d="M359.765,767.638h1.7l-4.643,11.11h-1.665l1.616-3.97-2.993-7.14h1.7l2.145,5.2Z" transform="translate(-70.668 -153.337)" fill="#00336a"/>
        <path id="Path_164" data-name="Path 164" d="M372.913,771.334a3.7,3.7,0,0,1-3.713,3.924,2.964,2.964,0,0,1-2.594-1.3V778.7h-1.568V767.59h1.568v1.12A3.036,3.036,0,0,1,369.2,767.4a3.732,3.732,0,0,1,3.713,3.936m-1.585.017a2.356,2.356,0,1,0-4.706,0,2.409,2.409,0,0,0,2.385,2.433,2.329,2.329,0,0,0,2.321-2.433" transform="translate(-72.917 -153.289)" fill="#00336a"/>
        <path id="Path_165" data-name="Path 165" d="M384.189,771.96h-5.955a2.142,2.142,0,0,0,2.3,1.841,2.438,2.438,0,0,0,2.113-1.088l1.248.624a3.921,3.921,0,1,1-3.426-5.939,3.662,3.662,0,0,1,3.746,3.889c0,.209-.016.432-.032.673m-1.536-1.264a2.04,2.04,0,0,0-2.161-1.841,2.1,2.1,0,0,0-2.241,1.841Z" transform="translate(-75.23 -153.289)" fill="#00336a"/>
        <path id="Path_166" data-name="Path 166" d="M398.087,763.2c3.154,0,4.994,2.4,4.994,5.539,0,3.121-1.841,5.49-4.994,5.49H393.8V763.2Zm0,9.524c2.209,0,3.346-1.745,3.346-3.985s-1.137-4.034-3.346-4.034h-2.642v8.019Z" transform="translate(-78.662 -152.45)" fill="#00336a"/>
        <path id="Path_167" data-name="Path 167" d="M419.269,774.227l-1.024-2.786h-4.594l-1.024,2.786H410.9l4.178-11.03h1.76L421,774.227ZM414.179,770h3.538l-1.761-4.8Z" transform="translate(-82.078 -152.45)" fill="#00336a"/>
        <rect id="Rectangle_26" data-name="Rectangle 26" width="1.568" height="11.543" transform="translate(340.087 610.234)" fill="#00336a"/>
        <path id="Path_168" data-name="Path 168" d="M429.277,771.319a3.93,3.93,0,1,1,3.922,3.939,3.818,3.818,0,0,1-3.922-3.939m6.291,0a2.363,2.363,0,1,0-2.369,2.465,2.372,2.372,0,0,0,2.369-2.465" transform="translate(-85.749 -153.289)" fill="#00336a"/>
        <path id="Path_169" data-name="Path 169" d="M449.292,771.334a3.7,3.7,0,0,1-3.713,3.924,2.964,2.964,0,0,1-2.594-1.3V778.7h-1.568V767.59h1.568v1.12a3.036,3.036,0,0,1,2.594-1.312,3.732,3.732,0,0,1,3.713,3.936m-1.584.017a2.356,2.356,0,1,0-4.706,0,2.409,2.409,0,0,0,2.386,2.433,2.329,2.329,0,0,0,2.321-2.433" transform="translate(-88.174 -153.289)" fill="#00336a"/>
        <path id="Path_170" data-name="Path 170" d="M460.568,771.96h-5.955a2.142,2.142,0,0,0,2.3,1.841,2.438,2.438,0,0,0,2.113-1.088l1.248.624a3.921,3.921,0,1,1-3.426-5.939,3.662,3.662,0,0,1,3.746,3.889c0,.209-.016.432-.032.673m-1.536-1.264a2.04,2.04,0,0,0-2.161-1.841,2.1,2.1,0,0,0-2.241,1.841Z" transform="translate(-90.487 -153.289)" fill="#00336a"/>
        <path id="Path_171" data-name="Path 171" d="M464.176,771.319a3.892,3.892,0,0,1,4.034-3.921,3.75,3.75,0,0,1,2.914,1.28l-1.041.977a2.455,2.455,0,0,0-1.841-.785,2.457,2.457,0,1,0,0,4.914,2.454,2.454,0,0,0,1.841-.783l1.041.975a3.749,3.749,0,0,1-2.914,1.282,3.906,3.906,0,0,1-4.034-3.939" transform="translate(-92.72 -153.289)" fill="#00336a"/>
        <path id="Path_172" data-name="Path 172" d="M474.615,763.985a1.041,1.041,0,0,1,1.073-1.009,1.011,1.011,0,1,1,0,2.017,1.041,1.041,0,0,1-1.073-1.008m.289,2.722h1.568v7.476H474.9Z" transform="translate(-94.805 -152.406)" fill="#00336a"/>
        <path id="Path_173" data-name="Path 173" d="M485.567,767.59h1.568v7.476h-1.568V773.8a3.028,3.028,0,0,1-2.657,1.457,3.94,3.94,0,0,1,.063-7.86,2.92,2.92,0,0,1,2.594,1.312Zm-.016,3.729a2.449,2.449,0,0,0-2.4-2.449,2.462,2.462,0,0,0,.032,4.914,2.426,2.426,0,0,0,2.369-2.465" transform="translate(-95.736 -153.289)" fill="#00336a"/>
        <path id="Path_174" data-name="Path 174" d="M502.707,767.59h1.568v7.476h-1.568V773.8a3.028,3.028,0,0,1-2.657,1.457,3.94,3.94,0,0,1,.063-7.86,2.92,2.92,0,0,1,2.594,1.312Zm-.016,3.729a2.449,2.449,0,0,0-2.4-2.449,2.462,2.462,0,0,0,.032,4.914,2.426,2.426,0,0,0,2.369-2.465" transform="translate(-99.16 -153.289)" fill="#00336a"/>
        <path id="Path_175" data-name="Path 175" d="M516.166,771.96h-5.955a2.142,2.142,0,0,0,2.3,1.841,2.438,2.438,0,0,0,2.113-1.088l1.248.624a3.921,3.921,0,1,1-3.426-5.939,3.662,3.662,0,0,1,3.746,3.889c0,.209-.016.432-.032.673M514.63,770.7a2.04,2.04,0,0,0-2.161-1.841,2.1,2.1,0,0,0-2.241,1.841Z" transform="translate(-101.593 -153.289)" fill="#00336a"/>
        <path id="Path_176" data-name="Path 176" d="M525.357,767.67l-.272,1.488a2.652,2.652,0,0,0-1.1-.256c-1.361,0-2,1.456-2,3.474v2.69H520.4V767.59h1.584v1.681c.384-1.313,1.136-1.873,2.1-1.873a2.877,2.877,0,0,1,1.28.272" transform="translate(-103.95 -153.289)" fill="#00336a"/>
        <path id="Path_177" data-name="Path 177" d="M533.646,767.59h1.569v7.476h-1.569V773.8a3.028,3.028,0,0,1-2.657,1.457,3.94,3.94,0,0,1,.063-7.86,2.92,2.92,0,0,1,2.594,1.312Zm-.016,3.729a2.449,2.449,0,0,0-2.4-2.449,2.462,2.462,0,0,0,.032,4.914,2.426,2.426,0,0,0,2.369-2.465" transform="translate(-105.34 -153.289)" fill="#00336a"/>
        <path id="Path_178" data-name="Path 178" d="M543.728,766.938v1.312h-1.6v6.163h-1.568v-6.163h-1.345v-1.312h1.345v-2.8h1.568v2.8Z" transform="translate(-107.709 -152.638)" fill="#00336a"/>
        <path id="Path_179" data-name="Path 179" d="M552.206,767.59h1.568v7.476h-1.568V773.8a3.028,3.028,0,0,1-2.657,1.457,3.94,3.94,0,0,1,.063-7.86,2.92,2.92,0,0,1,2.594,1.312Zm-.016,3.729a2.449,2.449,0,0,0-2.4-2.449,2.462,2.462,0,0,0,.032,4.914,2.426,2.426,0,0,0,2.369-2.465" transform="translate(-109.048 -153.289)" fill="#00336a"/>
        <path id="Path_180" data-name="Path 180" d="M120.121,218.809c0-3.63,1.056-6.492,4.745-6.492,3.649,0,4.686,2.862,4.686,6.492,0,3.612-1.037,6.512-4.686,6.512-3.688,0-4.745-2.9-4.745-6.512m6.531,0c0-2.189-.442-3.88-1.786-3.88-1.383,0-1.864,1.691-1.864,3.88,0,2.171.481,3.88,1.864,3.88,1.344,0,1.786-1.709,1.786-3.88" transform="translate(-23.994 -42.411)" fill="#9fc9ef"/>
        <path id="Path_181" data-name="Path 181" d="M132.721,230.037a9.509,9.509,0,0,0,1.594-5.167h2.8a7.6,7.6,0,0,1-2.843,5.878Z" transform="translate(-26.511 -44.918)" fill="#9fc9ef"/>
        <rect id="Rectangle_27" data-name="Rectangle 27" width="3.016" height="13.234" transform="translate(117.714 169.445)" fill="#9fc9ef"/>
        <path id="Path_182" data-name="Path 182" d="M160.712,211.741h3.169l-4.033,13.234h-2.67l-4.033-13.234h3.131l2.228,8.375Z" transform="translate(-30.591 -42.296)" fill="#9fc9ef"/>
        <path id="Path_183" data-name="Path 183" d="M442.059,224.974l-1-3.072h-4.648l-.979,3.072h-3.227l4.9-13.234h3.284l4.879,13.234Zm-4.821-5.685h2.977l-1.5-4.667Z" transform="translate(-86.334 -42.296)" fill="#9fc9ef"/>
        <path id="Path_184" data-name="Path 184" d="M448,230.037a9.508,9.508,0,0,0,1.594-5.167h2.8a7.6,7.6,0,0,1-2.843,5.878Z" transform="translate(-89.489 -44.918)" fill="#9fc9ef"/>
        <rect id="Rectangle_28" data-name="Rectangle 28" width="3.016" height="13.234" transform="translate(370.014 169.445)" fill="#9fc9ef"/>
        <rect id="Rectangle_29" data-name="Rectangle 29" width="3.016" height="13.234" transform="translate(376.083 169.445)" fill="#9fc9ef"/>
        <rect id="Rectangle_30" data-name="Rectangle 30" width="3.016" height="13.234" transform="translate(382.152 169.445)" fill="#9fc9ef"/>
        <path id="Path_185" data-name="Path 185" d="M293.483,472.156c0,1.805-1.172,3.8-4.284,3.8h-5.743V462.725h5.359c2.42,0,3.976,1.46,3.976,3.419a2.673,2.673,0,0,1-1.863,2.746,3.061,3.061,0,0,1,2.555,3.266m-4.879-6.8h-2.132v2.535h2.113a1.271,1.271,0,0,0,.019-2.535m.231,7.971a1.484,1.484,0,1,0,0-2.958h-2.362v2.958Z" transform="translate(-56.621 -92.43)" fill="#9fc9ef"/>
        <path id="Path_186" data-name="Path 186" d="M296.584,481.021a9.509,9.509,0,0,0,1.594-5.167h2.8a7.6,7.6,0,0,1-2.843,5.878Z" transform="translate(-59.243 -95.053)" fill="#9fc9ef"/>
        <path id="Path_187" data-name="Path 187" d="M316.559,462.725h3.169l-4.033,13.234h-2.67l-4.033-13.234h3.131l2.228,8.375Z" transform="translate(-61.722 -92.43)" fill="#9fc9ef"/>
        <path id="Path_188" data-name="Path 188" d="M118.5,737.666a6.732,6.732,0,0,1,12.293-3.88l-2.343,1.633a3.518,3.518,0,0,0-3.092-1.729,4.01,4.01,0,0,0-.019,8.01,3.525,3.525,0,0,0,3.111-1.729l2.343,1.633a6.737,6.737,0,0,1-5.57,2.939,6.813,6.813,0,0,1-6.723-6.877" transform="translate(-23.671 -145.988)" fill="#9fc9ef"/>
        <path id="Path_189" data-name="Path 189" d="M134.1,749.43a9.508,9.508,0,0,0,1.594-5.166h2.8a7.6,7.6,0,0,1-2.843,5.878Z" transform="translate(-26.787 -148.668)" fill="#9fc9ef"/>
        <rect id="Rectangle_31" data-name="Rectangle 31" width="3.016" height="13.235" transform="translate(118.818 585.088)" fill="#9fc9ef"/>
        <path id="Path_190" data-name="Path 190" d="M162.093,731.134h3.169l-4.033,13.234h-2.67l-4.033-13.234h3.131l2.228,8.375Z" transform="translate(-30.867 -146.046)" fill="#9fc9ef"/>
        <path id="Path_191" data-name="Path 191" d="M432.881,731.134c3.822,0,6.032,2.882,6.032,6.646,0,3.745-2.209,6.588-6.032,6.588h-5.225V731.134Zm0,10.6c1.978,0,3-1.9,3-3.957,0-2.074-1.018-4.014-3-4.014h-2.209v7.971Z" transform="translate(-85.425 -146.045)" fill="#9fc9ef"/>
        <path id="Path_192" data-name="Path 192" d="M441.744,749.43a9.507,9.507,0,0,0,1.594-5.166h2.8a7.6,7.6,0,0,1-2.843,5.878Z" transform="translate(-88.239 -148.668)" fill="#9fc9ef"/>
        <rect id="Rectangle_32" data-name="Rectangle 32" width="3.016" height="13.235" transform="translate(365.008 585.088)" fill="#9fc9ef"/>
        <path id="Path_193" data-name="Path 193" d="M469.735,731.134H472.9l-4.033,13.234H466.2l-4.033-13.234H465.3l2.228,8.375Z" transform="translate(-92.319 -146.046)" fill="#9fc9ef"/>
        <path id="Path_194" data-name="Path 194" d="M156.494,713.49H25.334V687.548l23.7-4.933h53.641l34.556,7.192A24.191,24.191,0,0,1,156.494,713.49Z" transform="translate(-5.061 -136.354)" fill="#f7f7f7"/>
        <path id="Path_195" data-name="Path 195" d="M102.751,628.244l-9.463,7.262a21.259,21.259,0,0,1-25.385,0l-9.463-7.262c-3.959-3.038-6.4-12.333-6.769-16.992l-2.506-26.3c-1.31-16.347,9.978-30.257,31.431-30.257,21.826,0,32.74,13.909,31.431,30.257l-2.506,26.3c-.373,4.658-2.81,13.954-6.769,16.992" transform="translate(-9.8 -110.801)" fill="#414347"/>
        <path id="Path_196" data-name="Path 196" d="M128.439,617.894c0,7.86-3.852,14.142-8.605,14.142s-8.606-4.52-8.606-10.1,3.853-10.1,8.606-10.1,8.605.473,8.605,6.048" transform="translate(-22.218 -122.217)" fill="#ffd1bb"/>
        <path id="Path_197" data-name="Path 197" d="M44.2,617.894c0,7.86,3.852,14.142,8.605,14.142s8.606-4.52,8.606-10.1-3.853-10.1-8.606-10.1-8.605.473-8.605,6.048" transform="translate(-8.828 -122.217)" fill="#ffd1bb"/>
        <path id="Path_198" data-name="Path 198" d="M101.38,662.28V628.451H62.164V662.28a9.883,9.883,0,0,1-7.213,9.516l1.539,5.886a20.66,20.66,0,0,0,6.586,10.5l5.291,4.511a20.664,20.664,0,0,0,26.809,0l5.291-4.511a20.666,20.666,0,0,0,6.586-10.5l1.539-5.886a9.883,9.883,0,0,1-7.213-9.516" transform="translate(-10.977 -125.534)" fill="#ffc5b2"/>
        <path id="Path_199" data-name="Path 199" d="M101.951,637.26l-8.91,7.631a18.371,18.371,0,0,1-23.9,0l-8.91-7.631a18.371,18.371,0,0,1-6.373-12.637L51.65,593.882a35.783,35.783,0,0,1,.242-7.8c1.451-9.8,7.212-12.272,12.743-9.807,6.4,2.852,7.077,4.793,16.455,4.793s9.765-.877,16.457-4.793c5.226-3.058,11.291,0,12.742,9.807a35.782,35.782,0,0,1,.241,7.8l-2.207,30.742a18.371,18.371,0,0,1-6.373,12.637" transform="translate(-10.296 -114.886)" fill="#ffd7c2"/>
        <path id="Path_200" data-name="Path 200" d="M81.091,581.133h0c-9.378,0-10.055-1.941-16.456-4.793-5.531-2.464-11.292,0-12.743,9.807a35.78,35.78,0,0,0-.241,7.8l2.207,30.742a18.371,18.371,0,0,0,6.373,12.637l8.91,7.631a18.33,18.33,0,0,0,11.95,4.418Z" transform="translate(-10.296 -114.948)" fill="#ffc8b0"/>
        <path id="Path_201" data-name="Path 201" d="M80.414,636.856a30.125,30.125,0,0,1,9.665-.521,22.632,22.632,0,0,1,3.222.521v.08c-3.211.038-9.677.038-12.887,0Z" transform="translate(-16.063 -127.077)" fill="#552e20"/>
        <g id="Group_28" data-name="Group 28" transform="translate(64.352 489.628)" opacity="0.15">
          <g id="Group_27" data-name="Group 27">
            <g id="Group_26" data-name="Group 26" clip-path="url(#clip-path-13)">
              <path id="Path_202" data-name="Path 202" d="M86.858,611.846l-6.444,20.19h6.444Z" transform="translate(-80.414 -611.846)" fill="#25355b"/>
            </g>
          </g>
        </g>
        <path id="Path_203" data-name="Path 203" d="M79.481,576.307c3.547-.371,7.008-1.183,10.5-1.881a51.37,51.37,0,0,1-10.5,1.881" transform="translate(-15.876 -114.743)" fill="#ffc8b0"/>
        <path id="Path_204" data-name="Path 204" d="M83.12,574.252c2.161.252,4.314-.382,6.405-.857,1.827-.469,4.409-1.3,6.24-1.853-4,1.317-8.372,3.186-12.645,2.71" transform="translate(-16.603 -114.167)" fill="#ffc8b0"/>
        <path id="Path_205" data-name="Path 205" d="M100.222,572.8c2.529-.438,5.007-.887,7.487-1.554a17.488,17.488,0,0,1-7.487,1.554" transform="translate(-20.02 -114.108)" fill="#ffc8b0"/>
        <path id="Path_206" data-name="Path 206" d="M91.322,572.121c1.677-.505,3.385-1.017,5.04-1.592.952-.382,2-.79,2.963-1.134a33.657,33.657,0,0,1-8,2.726" transform="translate(-18.242 -113.738)" fill="#ffc8b0"/>
        <path id="Path_207" data-name="Path 207" d="M101.009,571.54a40.036,40.036,0,0,0,4.8-1.044,3.438,3.438,0,0,0,1.448-.689,2.749,2.749,0,0,1-1.365.927,11.785,11.785,0,0,1-4.878.806" transform="translate(-20.177 -113.82)" fill="#ffc8b0"/>
        <path id="Path_208" data-name="Path 208" d="M87.08,577.179a29.466,29.466,0,0,0-4.95,2.561,6.709,6.709,0,0,1-5.6.491,9.024,9.024,0,0,0,5.276-1.058,12.7,12.7,0,0,1,5.277-1.993" transform="translate(-15.286 -115.293)" fill="#ffc8b0"/>
        <path id="Path_209" data-name="Path 209" d="M82.979,568.141a50.4,50.4,0,0,0-18.823,1.853,37.151,37.151,0,0,1,18.823-1.853" transform="translate(-12.815 -113.393)" fill="#ffc8b0"/>
        <path id="Path_210" data-name="Path 210" d="M90.55,569.484A32.3,32.3,0,0,1,75.718,570.9a75.518,75.518,0,0,0,14.832-1.416" transform="translate(-15.125 -113.756)" fill="#ffc8b0"/>
        <path id="Path_211" data-name="Path 211" d="M79.1,576.4c-3.172,1-6.768,2.364-9.978.817,3.39.633,6.594-.7,9.978-.817" transform="translate(-13.808 -115.136)" fill="#ffc8b0"/>
        <path id="Path_212" data-name="Path 212" d="M80.473,577.682c-.81.218-1.618.379-2.426.527l-2.426.474a8,8,0,0,1-4.941-.716c3.343.742,6.468-.534,9.793-.284" transform="translate(-14.118 -115.387)" fill="#ffc8b0"/>
        <path id="Path_213" data-name="Path 213" d="M103.271,573.385a14.8,14.8,0,0,1-10.538,5.992c-.595.013-1.188,0-1.774-.03.583-.119,1.164-.17,1.733-.289,4.039-.771,7.488-3,10.579-5.674" transform="translate(-18.169 -114.535)" fill="#ffc8b0"/>
        <path id="Path_214" data-name="Path 214" d="M106.415,566.374a17.907,17.907,0,0,0-5.442.786,11.413,11.413,0,0,1-5.563.512,18.322,18.322,0,0,0,5.419-.982,11.3,11.3,0,0,1,5.585-.316" transform="translate(-19.059 -113.092)" fill="#ffc8b0"/>
        <path id="Path_215" data-name="Path 215" d="M70.157,571.382c-2.469.088-4.818.99-7.293.715,2.443-.176,4.83-1.078,7.293-.715" transform="translate(-12.557 -114.118)" fill="#ffc8b0"/>
        <path id="Path_216" data-name="Path 216" d="M95.321,563.72a19.165,19.165,0,0,0-5.231,1.163,10.248,10.248,0,0,1-5.428.744c3.689-.279,6.877-2.75,10.659-1.907" transform="translate(-16.911 -112.569)" fill="#ffc8b0"/>
        <path id="Path_217" data-name="Path 217" d="M72.942,573.4a15.959,15.959,0,0,0-4.735,1.16,8.6,8.6,0,0,1-4.949.747c3.352-.282,6.23-2.749,9.684-1.907" transform="translate(-12.636 -114.503)" fill="#ffc8b0"/>
        <path id="Path_218" data-name="Path 218" d="M91.038,556.016a39.57,39.57,0,0,0-17.417,1.525,34.393,34.393,0,0,1,17.417-1.525" transform="translate(-14.706 -110.966)" fill="#ffc8b0"/>
        <path id="Path_219" data-name="Path 219" d="M101.687,559.042a23.912,23.912,0,0,0-12.32-1.693,20.334,20.334,0,0,1,12.32,1.693" transform="translate(-17.851 -111.269)" fill="#ffc8b0"/>
        <path id="Path_220" data-name="Path 220" d="M92.661,563.235a32.816,32.816,0,0,0-8.8.652,28.219,28.219,0,0,1-8.845.71l2.218-.08a31.857,31.857,0,0,0,6.557-.949,25.767,25.767,0,0,1,8.868-.333" transform="translate(-14.985 -112.461)" fill="#ffc8b0"/>
        <path id="Path_221" data-name="Path 221" d="M108.242,565.043a28.547,28.547,0,0,0-13.7-2.561,20.958,20.958,0,0,1,13.7,2.561" transform="translate(-18.885 -112.305)" fill="#ffc8b0"/>
        <path id="Path_222" data-name="Path 222" d="M102.925,562.463a25.975,25.975,0,0,0-13.7-2.561,22.547,22.547,0,0,1,13.7,2.561" transform="translate(-17.823 -111.801)" fill="#ffc8b0"/>
        <path id="Path_223" data-name="Path 223" d="M84.555,561.6a34.316,34.316,0,0,0-19.719,4.468A31.351,31.351,0,0,1,84.555,561.6" transform="translate(-12.951 -112.141)" fill="#ffc8b0"/>
        <path id="Path_224" data-name="Path 224" d="M90.642,558.722a46.829,46.829,0,0,0-20.048,2.234,36.344,36.344,0,0,1,20.048-2.234" transform="translate(-14.101 -111.5)" fill="#ffc8b0"/>
        <path id="Path_225" data-name="Path 225" d="M84.209,556.923a87.838,87.838,0,0,0-9.687,1.782,26.134,26.134,0,0,1,9.687-1.782" transform="translate(-14.886 -111.246)" fill="#ffc8b0"/>
        <path id="Path_226" data-name="Path 226" d="M128.68,193.261H20.591V168.122l32.921-6.211h52.974L128.68,166.1Z" transform="translate(-4.113 -32.342)" fill="#f7f7f7"/>
        <path id="Path_227" data-name="Path 227" d="M134.3,98c0,7.762-3.8,13.966-8.5,13.966s-8.5-4.463-8.5-9.969,3.805-9.969,8.5-9.969,8.5.467,8.5,5.973" transform="translate(-23.432 -18.382)" fill="#ffd1bb"/>
        <path id="Path_228" data-name="Path 228" d="M51.111,98c0,7.762,3.8,13.966,8.5,13.966s8.5-4.463,8.5-9.969-3.805-9.969-8.5-9.969-8.5.467-8.5,5.973" transform="translate(-10.21 -18.382)" fill="#ffd1bb"/>
        <path id="Path_229" data-name="Path 229" d="M116.381,63.436c-1.432-8.082-7.423-13.675-12.584-11.155-6.608,3.228-6.99,11.625-16.251,11.625s-9.929-9.273-16.251-11.625C65.833,50.25,60.143,55.354,58.71,63.436a24.683,24.683,0,0,0-.238,6.428s.911,17.321,3.282,25.344,6.428,20.014,6.428,29.245v6.039a9.76,9.76,0,0,1-7.123,9.4,44.265,44.265,0,0,0,52.973,0,9.76,9.76,0,0,1-7.123-9.4v-6.039c0-9.231,3.97-21.222,6.408-29.245s3.3-25.344,3.3-25.344a24.648,24.648,0,0,0-.238-6.428" transform="translate(-11.659 -10.321)" fill="#ffc5b2"/>
        <path id="Path_230" data-name="Path 230" d="M87.071,35.584c-18.059.006-31.029,13.608-31.029,29.88,0,15.7,8.509,35.15,10.249,38.257,2.826,5.046,6.9,5.8,12.688,5.8H95.163c5.783,0,9.862-.756,12.688-5.8,1.74-3.107,10.249-22.689,10.249-38.257,0-16.271-12.97-29.874-31.029-29.88" transform="translate(-11.195 -7.108)" fill="#414347"/>
        <path id="Path_231" data-name="Path 231" d="M87.366,37.875C70,37.88,57.522,50.337,57.522,65.239c0,14.376,9.044,32.189,10.718,35.034,2.718,4.621,5.78,5.22,11.344,5.22H95.15c5.563,0,8.625-.6,11.344-5.22,1.673-2.845,10.718-20.778,10.718-35.034,0-14.9-12.474-27.359-29.844-27.364" transform="translate(-11.49 -7.566)" fill="#414347"/>
        <path id="Path_232" data-name="Path 232" d="M91.489,65.627l-.078-.082.027.027c.018.018.034.036.05.054" transform="translate(-18.26 -13.093)" fill="#f9bb8f"/>
      </g>
    </g>
    <g id="Group_32" data-name="Group 32" transform="translate(62.439 33.925)">
      <g id="Group_31" data-name="Group 31" clip-path="url(#clip-path-14)">
        <rect id="Rectangle_35" data-name="Rectangle 35" width="26.896" height="14.85" transform="translate(0 0)" fill="url(#radial-gradient-5)"/>
      </g>
    </g>
    <g id="Group_34" data-name="Group 34">
      <g id="Group_33" data-name="Group 33" clip-path="url(#clip-path)">
        <path id="Path_234" data-name="Path 234" d="M271.853,448.405H151.287V423.266l32.921-6.211h52.973l34.671,6.54Z" transform="translate(-30.22 -83.308)" fill="#f7f7f7"/>
        <path id="Path_235" data-name="Path 235" d="M265,353.141c0,7.762-3.8,13.966-8.5,13.966s-8.5-4.464-8.5-9.97,3.805-9.97,8.5-9.97,8.5.467,8.5,5.973" transform="translate(-49.539 -69.347)" fill="#ffd1bb"/>
        <path id="Path_236" data-name="Path 236" d="M181.807,353.141c0,7.762,3.8,13.966,8.5,13.966s8.5-4.464,8.5-9.97-3.805-9.97-8.5-9.97-8.5.467-8.5,5.973" transform="translate(-36.316 -69.347)" fill="#ffd1bb"/>
        <path id="Path_237" data-name="Path 237" d="M247.077,318.58c-1.432-8.082-7.423-13.675-12.584-11.155-6.608,3.228-6.99,11.625-16.251,11.625s-9.929-9.273-16.251-11.625c-5.462-2.032-11.152,3.072-12.585,11.155a24.684,24.684,0,0,0-.238,6.428s.912,17.321,3.282,25.344,6.428,20.014,6.428,29.245v6.039a9.76,9.76,0,0,1-7.123,9.4,44.265,44.265,0,0,0,52.973,0,9.76,9.76,0,0,1-7.123-9.4V379.6c0-9.231,3.97-21.222,6.408-29.245s3.3-25.344,3.3-25.344a24.648,24.648,0,0,0-.238-6.428" transform="translate(-37.766 -61.287)" fill="#ffc5b2"/>
        <path id="Path_238" data-name="Path 238" d="M217.767,290.729c-18.059.006-31.028,13.608-31.028,29.88,0,15.7,8.508,35.15,10.248,38.256,2.826,5.047,6.9,5.8,12.688,5.8h16.184c5.783,0,9.862-.756,12.688-5.8,1.74-3.106,10.249-22.688,10.249-38.256,0-16.271-12.97-29.874-31.029-29.88" transform="translate(-37.301 -58.074)" fill="#414347"/>
        <path id="Path_239" data-name="Path 239" d="M218.062,293.02c-17.37,0-29.844,12.462-29.844,27.364,0,14.376,9.044,32.189,10.718,35.034,2.718,4.621,5.78,5.22,11.344,5.22h15.566c5.563,0,8.625-.6,11.344-5.22,1.673-2.845,10.718-20.778,10.718-35.034,0-14.9-12.474-27.359-29.844-27.364" transform="translate(-37.597 -58.531)" fill="#414347"/>
        <path id="Path_240" data-name="Path 240" d="M222.185,320.771l-.078-.082.027.027c.018.018.034.036.05.054" transform="translate(-44.366 -64.058)" fill="#f9bb8f"/>
      </g>
    </g>
    <g id="Group_36" data-name="Group 36" transform="translate(152.761 232.655)">
      <g id="Group_35" data-name="Group 35" clip-path="url(#clip-path-16)">
        <rect id="Rectangle_37" data-name="Rectangle 37" width="54.744" height="41.385" fill="url(#radial-gradient-6)"/>
      </g>
    </g>
    <g id="Group_44" data-name="Group 44">
      <g id="Group_43" data-name="Group 43" clip-path="url(#clip-path)">
        <path id="Path_242" data-name="Path 242" d="M441.57,194.773H341v-25.82l23.589-4.91h53.389l23.589,4.91Z" transform="translate(-68.116 -32.768)" fill="#f7f7f7"/>
        <path id="Path_243" data-name="Path 243" d="M418.061,109.929l-9.419,7.229a21.161,21.161,0,0,1-25.265,0l-9.418-7.229c-3.94-3.023-6.366-12.275-6.737-16.912l-2.494-26.177c-1.3-16.271,13.076-30.115,31.282-30.115S428.6,50.569,427.292,66.841L424.8,93.018c-.371,4.637-2.8,13.888-6.737,16.912" transform="translate(-72.839 -7.336)" fill="#414347"/>
        <path id="Path_244" data-name="Path 244" d="M443.622,99.627c0,7.823-3.834,14.076-8.565,14.076s-8.564-4.5-8.564-10.048,3.835-10.047,8.564-10.047,8.565.471,8.565,6.019" transform="translate(-85.193 -18.698)" fill="#ffd1bb"/>
        <path id="Path_245" data-name="Path 245" d="M359.778,99.627c0,7.823,3.835,14.076,8.565,14.076s8.564-4.5,8.564-10.048-3.835-10.047-8.564-10.047-8.565.471-8.565,6.019" transform="translate(-71.866 -18.698)" fill="#ffd1bb"/>
        <path id="Path_246" data-name="Path 246" d="M416.69,143.8v-33.67H377.659V143.8a9.837,9.837,0,0,1-7.179,9.471l1.532,5.858a20.561,20.561,0,0,0,6.555,10.447l5.266,4.489a20.567,20.567,0,0,0,26.683,0l5.266-4.489a20.561,20.561,0,0,0,6.555-10.447l1.533-5.858a9.837,9.837,0,0,1-7.179-9.471" transform="translate(-74.004 -22)" fill="#ffc5b2"/>
        <path id="Path_247" data-name="Path 247" d="M417.259,118.076l-8.868,7.6a18.285,18.285,0,0,1-23.787,0l-8.868-7.6a18.283,18.283,0,0,1-6.343-12.577l-2.2-30.6a35.6,35.6,0,0,1,.24-7.761c1.444-9.757,7.177-15.919,12.683-13.465,6.371,2.838,7.044,14.033,16.378,14.033s9.719-10.137,16.379-14.034c5.2-3.043,11.239,3.709,12.683,13.467a35.594,35.594,0,0,1,.24,7.76l-2.2,30.6a18.284,18.284,0,0,1-6.344,12.577" transform="translate(-73.327 -10.575)" fill="#ffd7c2"/>
        <path id="Path_248" data-name="Path 248" d="M396.5,67.76h0c-9.334,0-10.008-11.2-16.379-14.034-5.5-2.453-11.239,3.709-12.683,13.466a35.6,35.6,0,0,0-.239,7.76l2.2,30.6a18.285,18.285,0,0,0,6.343,12.577l8.868,7.6a18.247,18.247,0,0,0,11.894,4.4Z" transform="translate(-73.327 -10.624)" fill="#ffc8b0"/>
        <path id="Path_249" data-name="Path 249" d="M395.825,118.5a29.838,29.838,0,0,1,9.619-.521,22.509,22.509,0,0,1,3.207.521v.08c-3.2.038-9.63.038-12.826,0Z" transform="translate(-79.067 -23.534)" fill="#552e20"/>
        <g id="Group_39" data-name="Group 39" transform="translate(316.758 74.91)" opacity="0.15">
          <g id="Group_38" data-name="Group 38">
            <g id="Group_37" data-name="Group 37" clip-path="url(#clip-path-18)">
              <path id="Path_250" data-name="Path 250" d="M402.237,93.608l-6.413,20.1h6.413Z" transform="translate(-395.825 -93.608)" fill="#25355b"/>
            </g>
          </g>
        </g>
        <path id="Path_251" data-name="Path 251" d="M412.312,441.394H314.863v-50.04l15.657-5.686a61.852,61.852,0,0,1,21.112-3.714h23.761a61.851,61.851,0,0,1,20.937,3.651l15.983,5.749Z" transform="translate(-62.895 -76.296)" fill="#f7f7f7"/>
        <path id="Path_252" data-name="Path 252" d="M414.882,372.126c0,7.1-3.787,12.78-8.458,12.78s-8.458-4.085-8.458-9.123,3.787-9.123,8.458-9.123,8.458.427,8.458,5.466" transform="translate(-79.495 -73.241)" fill="#ffd1bb"/>
        <path id="Path_253" data-name="Path 253" d="M332.082,372.126c0,7.1,3.787,12.78,8.458,12.78S349,380.821,349,375.783s-3.787-9.123-8.458-9.123-8.458.427-8.458,5.466" transform="translate(-66.334 -73.241)" fill="#ffd1bb"/>
        <path id="Path_254" data-name="Path 254" d="M375.75,316.479v58.4c13.933-.007,27.825-1.14,28.006-3.4,0,0,2.437-9.681,2.437-25.581,0-15.862-12.718-29.36-30.443-29.424" transform="translate(-75.057 -63.217)" fill="#414347"/>
        <path id="Path_255" data-name="Path 255" d="M368.088,316.478c-.042,0-.083,0-.126,0-17.79,0-30.569,13.528-30.569,29.427s2.437,25.581,2.437,25.581c.182,2.272,14.24,3.4,28.258,3.4Z" transform="translate(-67.395 -63.217)" fill="#414347"/>
        <path id="Path_256" data-name="Path 256" d="M392.964,396.991c0,10.7-10.365,23.695-23.15,23.695s-23.15-13-23.15-23.695,10.364-15.037,23.15-15.037,23.15,4.342,23.15,15.037" transform="translate(-69.247 -76.296)" fill="#ffc5b2"/>
        <path id="Path_257" data-name="Path 257" d="M388.655,400.185h0a44.431,44.431,0,0,1-40.452,0c-3.725-1.9-6.184-8.623-6.484-12.8,0,0-1.989-2.666-1.989-12.3,0-9.74,3.951-14.021,9.388-11.6,6.292,2.8,10.094,14.6,19.312,14.6s12.977-10.752,19.554-14.6c5.137-3.006,9.145,1.86,9.145,11.6,0,9.634-1.989,12.3-1.989,12.3-.3,4.173-2.759,10.891-6.484,12.8" transform="translate(-67.862 -72.431)" fill="#ffd7c2"/>
        <path id="Path_258" data-name="Path 258" d="M375.755,419.44c-.011-1.424,0-14.249,0-14.249l6.809,6.8Z" transform="translate(-75.057 -80.938)" fill="#ffd7c2"/>
        <g id="Group_42" data-name="Group 42" transform="translate(293.879 324.252)" opacity="0.15">
          <g id="Group_41" data-name="Group 41">
            <g id="Group_40" data-name="Group 40" clip-path="url(#clip-path-19)">
              <path id="Path_259" data-name="Path 259" d="M374.043,419.44c.012-1.424,0-14.249,0-14.249l-6.809,6.8Z" transform="translate(-367.235 -405.19)" fill="#25355b"/>
            </g>
          </g>
        </g>
      </g>
    </g>
    <g id="Group_46" data-name="Group 46" transform="translate(273.321 252.653)">
      <g id="Group_45" data-name="Group 45" clip-path="url(#clip-path-20)">
        <rect id="Rectangle_41" data-name="Rectangle 41" width="54.743" height="41.385" transform="translate(0 0)" fill="url(#radial-gradient-7)"/>
      </g>
    </g>
    <g id="Group_48" data-name="Group 48">
      <g id="Group_47" data-name="Group 47" clip-path="url(#clip-path)">
        <path id="Path_261" data-name="Path 261" d="M460.61,713.234H340.688V686.457l27.078-10.422h40.023l45.595,25A13.915,13.915,0,0,1,460.61,713.234Z" transform="translate(-68.053 -135.039)" fill="#f7f7f7"/>
        <path id="Path_262" data-name="Path 262" d="M424.717,611.44l-9.357,30.874-8.9-20.525Z" transform="translate(-81.191 -122.136)" fill="#414347"/>
        <path id="Path_263" data-name="Path 263" d="M414.1,590.231a34.215,34.215,0,1,1-34.215-34.215A34.215,34.215,0,0,1,414.1,590.231" transform="translate(-69.049 -111.065)" fill="#552e20"/>
        <path id="Path_264" data-name="Path 264" d="M383.821,694.029h0c-9.4,0-9.3-21.1-9.3-32.155v-56.73l33.1,1.856s-.556,48.97,6.926,54.874-19.674,32.155-30.726,32.155" transform="translate(-74.812 -120.879)" fill="#ffc8b0"/>
        <path id="Path_265" data-name="Path 265" d="M414.1,590.231a34.215,34.215,0,1,1-34.215-34.215A34.215,34.215,0,0,1,414.1,590.231" transform="translate(-69.049 -111.065)" fill="#552e20"/>
        <path id="Path_266" data-name="Path 266" d="M414.1,590.231a34.215,34.215,0,1,1-34.215-34.215A34.215,34.215,0,0,1,414.1,590.231" transform="translate(-69.049 -111.065)" fill="#414347"/>
        <path id="Path_267" data-name="Path 267" d="M409.234,618.646c-.419-1.364,4.419-7.333,8.352-8.026a7.2,7.2,0,0,1,7.089,2.943c3.5,5.885-6.7,20.193-11.247,19.062-1.284-4.647-1.548-5.367-4.193-13.979" transform="translate(-81.74 -121.953)" fill="#ffd7c2"/>
        <path id="Path_268" data-name="Path 268" d="M388.772,599.275l-1.046-15.946a.843.843,0,0,0-.067-.283c-1.732-4.039-7.186-9.837-15.269-5.8-8.174,4.081-12.543,10.1-18.718,10.1s-5.9-4.958-3.7-9.745a34.045,34.045,0,0,0-4.294,16.6l3.723,37.388c0,.035.01.07.016.1l3.049,13.5a6.881,6.881,0,0,0,6.711,5.364h5.721a15.66,15.66,0,0,0,8.691-2.634l17.8-11.886a10.869,10.869,0,0,0,4.42-12.014l-7.026-24.7a.223.223,0,0,1-.008-.047" transform="translate(-69.049 -115.033)" fill="#ffd7c2"/>
        <path id="Path_269" data-name="Path 269" d="M345.674,594.627h0l3.723,37.389a.777.777,0,0,0,.017.1l3.048,13.5a6.875,6.875,0,0,0,4.681,5.052L352.5,587.7v0c-4.949-.61-4.575-5.215-2.53-9.673a34.06,34.06,0,0,0-4.293,16.6" transform="translate(-69.049 -115.462)" fill="#ffc8b0"/>
        <path id="Path_270" data-name="Path 270" d="M354.335,614.971,347.473,632.2l8.294,2.338Z" transform="translate(-69.409 -122.842)" fill="#ffd7c2"/>
      </g>
    </g>
    <g id="Group_50" data-name="Group 50" transform="translate(323.307 477.772)">
      <g id="Group_49" data-name="Group 49" clip-path="url(#clip-path-22)">
        <rect id="Rectangle_43" data-name="Rectangle 43" width="8.849" height="8.85" fill="url(#radial-gradient-8)"/>
      </g>
    </g>
    <g id="Group_62" data-name="Group 62">
      <g id="Group_61" data-name="Group 61" clip-path="url(#clip-path)">
        <g id="Group_55" data-name="Group 55" transform="translate(327.141 461.861)" opacity="0.81">
          <g id="Group_54" data-name="Group 54">
            <g id="Group_53" data-name="Group 53" clip-path="url(#clip-path-24)">
              <g id="Group_52" data-name="Group 52">
                <g id="Group_51" data-name="Group 51" clip-path="url(#clip-path-25)">
                  <rect id="Rectangle_44" data-name="Rectangle 44" width="13.229" height="13.229" fill="url(#radial-gradient-9)"/>
                </g>
              </g>
            </g>
          </g>
        </g>
        <g id="Group_60" data-name="Group 60" transform="translate(315.487 449.486)" opacity="0.59">
          <g id="Group_59" data-name="Group 59">
            <g id="Group_58" data-name="Group 58" clip-path="url(#clip-path-26)">
              <g id="Group_57" data-name="Group 57" transform="translate(0 0)">
                <g id="Group_56" data-name="Group 56" clip-path="url(#clip-path-27)">
                  <rect id="Rectangle_46" data-name="Rectangle 46" width="22.072" height="19.952" transform="translate(-5.18 0.362) rotate(-16.661)" fill="url(#radial-gradient-10)"/>
                </g>
              </g>
            </g>
          </g>
        </g>
      </g>
    </g>
  </g>
</svg>
